<?xml version="1.0" encoding="UTF-8"?>
<svg version="1.1" xmlns="http://www.w3.org/2000/svg" width="750" height="759">
<path d="M0 0 C2.75059381 -0.08107646 5.49879021 -0.14052813 8.25 -0.1875 C9.02730469 -0.21263672 9.80460937 -0.23777344 10.60546875 -0.26367188 C15.29639424 -0.32381195 17.287627 0.02112005 21 3 C23.62566176 3.48023467 26.10489205 3.82598041 28.75 4.0625 C34.31978037 4.65044924 39.6170226 5.42996493 45 7 C45 9.97 45 12.94 45 16 C46.65 16 48.3 16 50 16 C50 17.32 50 18.64 50 20 C49.34 20 48.68 20 48 20 C48 20.66 48 21.32 48 22 C43.01770224 23.91626837 38.27315333 24.5547115 33 25 C33.99 25.66 34.98 26.32 36 27 C36.5625 29.375 36.5625 29.375 36 32 C27.4568876 38.95369614 18.55039758 39.16895654 8 39 C7.71125 39.639375 7.4225 40.27875 7.125 40.9375 C6 43 6 43 4 44 C2.26267194 44.22074841 0.51881593 44.39130638 -1.2265625 44.53515625 C-2.7734375 44.66567383 -2.7734375 44.66567383 -4.3515625 44.79882812 C-5.43179687 44.88583984 -6.51203125 44.97285156 -7.625 45.0625 C-8.71296875 45.15337891 -9.8009375 45.24425781 -10.921875 45.33789062 C-13.61428051 45.56225775 -16.30710391 45.78159977 -19 46 C-13.72 46.33 -8.44 46.66 -3 47 C-3 48.32 -3 49.64 -3 51 C-2.21761963 51.02505615 -1.43523926 51.0501123 -0.62915039 51.07592773 C2.89324949 51.19149788 6.4153556 51.31439949 9.9375 51.4375 C11.16919922 51.47681641 12.40089844 51.51613281 13.66992188 51.55664062 C15.4246582 51.61948242 15.4246582 51.61948242 17.21484375 51.68359375 C18.29886475 51.72025146 19.38288574 51.75690918 20.49975586 51.79467773 C23 52 23 52 24 53 C26.05985641 53.16285834 28.1234569 53.27878489 30.1875 53.375 C36.46644645 53.77537816 42.31123505 54.8294051 48.4296875 56.24609375 C52.13439164 57.0283781 55.804781 57.5408947 59.5625 58 C65.55116551 58.74080166 71.29881683 59.90844002 77.15234375 61.359375 C79.49914048 61.88732378 81.61223181 62.17292274 84 62.3125 C89.02348465 62.81166232 93.33806153 65.34366814 97.82421875 67.51171875 C101.79835735 69.37413794 105.80907032 70.72620899 110 72 C122.97539167 76.12969244 135.34345424 80.93181216 147.43359375 87.19140625 C150.26546674 88.62750394 153.05696738 89.88629657 156 91.0625 C160.11701012 92.80009743 162.86698732 95.50201687 166.08984375 98.5390625 C168.8348122 100.63848622 171.63171533 100.55513221 175 101 C177.6875 103.9375 177.6875 103.9375 180 107 C182.54194921 108.6946328 184.60390602 109.14577042 187.625 109.875 C191 111 191 111 192.4375 113.125 C192.623125 113.74375 192.80875 114.3625 193 115 C193.66 115 194.32 115 195 115 C195 115.66 195 116.32 195 117 C195.928125 117.4640625 195.928125 117.4640625 196.875 117.9375 C198.25 118.625 199.625 119.3125 201 120 C201 120.66 201 121.32 201 122 C202.98 122.66 204.96 123.32 207 124 C207 124.66 207 125.32 207 126 C207.70125 126.2475 208.4025 126.495 209.125 126.75 C212.37002459 128.16088026 215.10316737 129.97895398 218 132 C217.67 130.68 217.34 129.36 217 128 C216.34 128 215.68 128 215 128 C215 127.34 215 126.68 215 126 C214.34 126 213.68 126 213 126 C212.1646875 125.1028125 212.1646875 125.1028125 211.3125 124.1875 C208.38996893 121.42294358 205.73945473 120.43825182 202 119 C201.67 116.03 201.34 113.06 201 110 C199.68 109.67 198.36 109.34 197 109 C195.61083596 108.2511126 194.25088827 107.44650902 192.91796875 106.6015625 C192.15033203 106.12203125 191.38269531 105.6425 190.59179688 105.1484375 C189.79837891 104.64570312 189.00496094 104.14296875 188.1875 103.625 C182.91134259 100.28444857 177.82211955 97.28531796 172 95 C172 94.01 172 93.02 172 92 C170.90171875 91.82210937 170.90171875 91.82210937 169.78125 91.640625 C163.04118775 90.08813875 157.5601755 86.09666674 153 81 C152.401875 80.443125 151.80375 79.88625 151.1875 79.3125 C150 78 150 78 150 76 C149.34 76 148.68 76 148 76 C148 74.02 148 72.04 148 70 C155.40469798 68.5190604 160.82706846 69.38657701 167.2890625 73.43359375 C168.79675105 74.47239634 170.30071743 75.51662336 171.80078125 76.56640625 C175.8477221 79.20446538 179.88432081 81.09403019 184.8125 80.875 C187.06087765 80.18643137 187.06087765 80.18643137 188.21875 78.45703125 C190.92989274 76.23936405 193.2574786 76.71061818 196.6875 76.8125 C198.45673828 76.85310547 198.45673828 76.85310547 200.26171875 76.89453125 C201.16535156 76.92933594 202.06898438 76.96414062 203 77 C205.046875 80.71875 205.046875 80.71875 204.625 83.25 C204.41875 83.8275 204.2125 84.405 204 85 C200.98968256 85.93423645 200.13349732 86.04449911 197 85 C197 86.32 197 87.64 197 89 C197.99 89.33 198.98 89.66 200 90 C202.3409114 88.59010011 202.3409114 88.59010011 204.75 86.625 C209.01119968 83.48220904 211.73202284 82.11452124 217 82 C216.979375 82.969375 216.95875 83.93875 216.9375 84.9375 C216.64381501 87.87465895 216.64381501 87.87465895 218 89 C219.84891946 89.23363881 221.70488031 89.41303635 223.5625 89.5625 C224.57441406 89.64628906 225.58632813 89.73007813 226.62890625 89.81640625 C227.41136719 89.87699219 228.19382812 89.93757813 229 90 C229 90.66 229 91.32 229 92 C229.556875 92.226875 230.11375 92.45375 230.6875 92.6875 C233 94 233 94 235.3125 96.5 C238.46727471 99.43467415 240.85434445 100.02011778 245 101 C247.72410285 102.05937333 248.72311754 102.54314393 250.25 105.0625 C253.02320203 108.13283082 255.96273011 107.73526099 260 108 C260.03867188 108.93972656 260.03867188 108.93972656 260.078125 109.8984375 C260.13484375 110.71570313 260.1915625 111.53296875 260.25 112.375 C260.31960938 113.59316406 260.31960938 113.59316406 260.390625 114.8359375 C260.77937939 117.15801804 260.77937939 117.15801804 262.87890625 118.14453125 C263.57886719 118.42683594 264.27882813 118.70914063 265 119 C268.62551755 122.11963138 270.58443583 124.15175132 271 129 C273.31 129 275.62 129 278 129 C278.6496875 130.670625 278.6496875 130.670625 279.3125 132.375 C280.69911119 136.17512334 280.69911119 136.17512334 284 138 C284 138.66 284 139.32 284 140 C284.99 140 285.98 140 287 140 C288.82421875 142.08203125 288.82421875 142.08203125 290.6875 144.8125 C291.31011719 145.70582031 291.93273437 146.59914062 292.57421875 147.51953125 C294 150 294 150 294 153 C294.66 153 295.32 153 296 153 C296.38671875 153.84304687 296.7734375 154.68609375 297.171875 155.5546875 C297.69265625 156.65039062 298.2134375 157.74609375 298.75 158.875 C299.51570312 160.51082031 299.51570312 160.51082031 300.296875 162.1796875 C302.02537809 165.04202519 302.89999181 165.93521458 306 167 C306 167.66 306 168.32 306 169 C307.32 169.33 308.64 169.66 310 170 C310 171.98 310 173.96 310 176 C310.66 176 311.32 176 312 176 C312.4125 177.010625 312.825 178.02125 313.25 179.0625 C314.38477798 181.7447025 315.67474327 184.20033413 317.1875 186.6875 C319 190 319 190 319 194 C319.66 194 320.32 194 321 194 C333 217.73786408 333 217.73786408 333 221 C333.66 221 334.32 221 335 221 C335 222.65 335 224.3 335 226 C335.66 226 336.32 226 337 226 C337.39832031 227.07378906 337.79664063 228.14757812 338.20703125 229.25390625 C338.74209782 230.69013758 339.27725914 232.12633362 339.8125 233.5625 C340.07353516 234.26697266 340.33457031 234.97144531 340.60351562 235.69726562 C342.28116999 240.19172237 344.09010161 244.5993848 346 249 C347.5336572 252.61898966 348.66225113 256.18790346 349.625 260 C349.88539063 261.010625 350.14578125 262.02125 350.4140625 263.0625 C350.96100992 265.80452974 351.11262782 268.21502114 351 271 C352.093125 270.9175 353.18625 270.835 354.3125 270.75 C358 271 358 271 359.9375 272.5 C361.49379618 276.16187337 361.26017835 279.03228012 361 283 C360.67 283.33 360.34 283.66 360 284 C361.32 284.66 362.64 285.32 364 286 C364.05399736 287.45792884 364.09279177 288.91642712 364.125 290.375 C364.14820313 291.18710937 364.17140625 291.99921875 364.1953125 292.8359375 C364 295 364 295 362 297 C360.68 297 359.36 297 358 297 C358 297.99 358 298.98 358 300 C360.31 300 362.62 300 365 300 C365.33 301.65 365.66 303.3 366 305 C363 307 363 307 360 307 C360.26554688 307.81339844 360.53109375 308.62679688 360.8046875 309.46484375 C365.4775506 324.62606747 366.24797211 339.68527642 366.57104492 355.47143555 C366.71347767 361.05651326 367.10356497 366.16652347 368.48243713 371.57879639 C370.4531862 380.79813004 370.13775882 390.48312094 370.09765625 399.859375 C370.0962413 401.12976624 370.09482635 402.40015747 370.09336853 403.70904541 C370.08876005 407.04291801 370.07981826 410.37671847 370.06866455 413.71057129 C370.05832882 417.12995795 370.05384519 420.54935214 370.04882812 423.96875 C370.03786793 430.64585278 370.02118228 437.32292224 370 444 C369.360625 444.103125 368.72125 444.20625 368.0625 444.3125 C367.381875 444.539375 366.70125 444.76625 366 445 C365.05669745 447.82990766 364.80878557 449.92567916 364.625 452.875 C363.93726759 460.84644379 362.0846061 468.47978597 359.76171875 476.125 C357.01247987 485.27960844 355.29346992 493.98268801 354.63256836 503.53930664 C354.54567749 504.73994751 354.54567749 504.73994751 354.45703125 505.96484375 C354.41553955 506.6724585 354.37404785 507.38007324 354.33129883 508.10913086 C354 510 354 510 352 513 C350.34068553 517.20636217 349.07404355 521.53325729 348.0625 525.9375 C347.11425562 529.90288561 345.64234102 533.56193506 344.0859375 537.32421875 C342.25614974 541.83286845 340.63742437 546.41869566 339 551 C338.34 551 337.68 551 337 551 C336.731875 551.763125 336.46375 552.52625 336.1875 553.3125 C335 556 335 556 333.4921875 557.37890625 C331.6017034 559.43270442 331.38496367 560.88808628 330.9375 563.625 C330.77636719 564.50800781 330.61523438 565.39101563 330.44921875 566.30078125 C330.16237323 568.02434866 329.89239568 569.75086528 329.64453125 571.48046875 C329.51433594 572.25003906 329.38414062 573.01960937 329.25 573.8125 C329.15203125 574.49957031 329.0540625 575.18664062 328.953125 575.89453125 C328 578 328 578 325.2890625 580.0859375 C319.97615575 584.23525405 317.6162606 590.81992988 314.67578125 596.72070312 C311.67365505 602.5229655 308.58114289 606.90590372 303.70556641 611.28320312 C301.11703048 613.88878352 300.28904496 616.58403085 299 620 C296.9375 622.9375 296.9375 622.9375 295 625 C294.34 625 293.68 625 293 625 C291.79371992 627.33214148 290.8345262 629.49642139 290 632 C289.278125 632.391875 288.55625 632.78375 287.8125 633.1875 C284.36943317 635.40636529 282.61907253 638.00637136 280.33203125 641.35546875 C279.67267578 642.16951172 279.67267578 642.16951172 279 643 C278.34 643 277.68 643 277 643 C277 643.66 277 644.32 277 645 C276.01 645 275.02 645 274 645 C274 647.31 274 649.62 274 652 C273.34 652 272.68 652 272 652 C271.67 654.97 271.34 657.94 271 661 C270.113125 661.268125 269.22625 661.53625 268.3125 661.8125 C262.70923408 663.72824368 262.70923408 663.72824368 259 668 C258.34 668 257.68 668 257 668 C256.7421875 668.5878125 256.484375 669.175625 256.21875 669.78125 C252.54190247 676.47499806 246.01691539 679.80826555 239.00390625 682.078125 C238.01197266 682.53445313 238.01197266 682.53445313 237 683 C236.67 683.99 236.34 684.98 236 686 C235.34 686 234.68 686 234 686 C234 686.66 234 687.32 234 688 C232.625 689.625 232.625 689.625 231 691 C230.34 691 229.68 691 229 691 C229 691.66 229 692.32 229 693 C223.29722267 698.70277733 214.60835837 701.73805562 207 704 C206.67 706.64 206.34 709.28 206 712 C205.11248047 712.29003906 205.11248047 712.29003906 204.20703125 712.5859375 C200.08341136 713.94478125 196.01662246 715.34609663 192 717 C191.01 717.33 190.02 717.66 189 718 C187.84478498 720.47130918 187.84478498 720.47130918 187 723 C185.13763975 724.86236025 181.94475444 724.52800771 179.4375 724.8125 C171.69118739 725.88881321 166.44410037 727.48672123 160.9375 733.0625 C156.60787975 737.03298125 151.15492663 737.42489944 145.58203125 738.36328125 C141.41194915 739.10452812 137.84270636 740.27001666 134 742 C133.10539063 742.39445313 132.21078125 742.78890625 131.2890625 743.1953125 C125.5642912 745.7545472 125.5642912 745.7545472 120.0625 748.75 C116.13225197 750.35418287 112.51034175 750.50358802 108.29296875 750.69140625 C105.65945237 750.93820079 103.52137716 751.35819044 100.9921875 752.01953125 C94.6936367 753.48872963 88.36904234 753.21389958 81.9375 753.125 C80.06674805 753.11146484 80.06674805 753.11146484 78.15820312 753.09765625 C75.10526496 753.07426209 72.05273694 753.04148174 69 753 C69.33 751.35 69.66 749.7 70 748 C70.99 747.67 71.98 747.34 73 747 C73 746.34 73 745.68 73 745 C74.06541016 744.72736328 74.06541016 744.72736328 75.15234375 744.44921875 C76.07144531 744.19785156 76.99054688 743.94648437 77.9375 743.6875 C78.85402344 743.44386719 79.77054687 743.20023438 80.71484375 742.94921875 C81.46894531 742.63597656 82.22304688 742.32273437 83 742 C83.33 741.01 83.66 740.02 84 739 C86.31 738.67 88.62 738.34 91 738 C91 737.34 91 736.68 91 736 C94.62528568 735.79859524 96.86501708 736.14223235 100 738 C102.30730306 736.72700521 103.75569204 735.68903622 104.65234375 733.16015625 C104.84957031 732.46792969 105.04679687 731.77570312 105.25 731.0625 C106.39709257 727.70710089 107.38193477 726.34984343 110.5625 724.75 C112.02950437 724.13672193 113.51007097 723.55526866 115 723 C116.70850007 722.31291446 118.41682995 721.62540559 120.125 720.9375 C120.96417969 720.61136719 121.80335938 720.28523437 122.66796875 719.94921875 C125.22148583 718.94801262 125.22148583 718.94801262 128.4375 717.25 C131 716 131 716 134 716 C134 715.34 134 714.68 134 714 C135.5778125 713.13375 135.5778125 713.13375 137.1875 712.25 C140.96493266 710.09037689 144.46968946 707.74078305 147.36328125 704.44921875 C149.36911756 702.67316799 150.8204811 702.36045039 153.4375 701.875 C154.58025391 701.65457031 154.58025391 701.65457031 155.74609375 701.4296875 C156.48988281 701.28789063 157.23367188 701.14609375 158 701 C159.33558511 700.67580669 160.66975194 700.34544027 162 700 C162 699.34 162 698.68 162 698 C163.60875 697.1028125 163.60875 697.1028125 165.25 696.1875 C167.40453641 694.96441973 169.33064445 693.74978258 171.3125 692.25 C173 691 173 691 175 691 C175 690.34 175 689.68 175 689 C175.99 689 176.98 689 178 689 C178 688.34 178 687.68 178 687 C179.5778125 686.1646875 179.5778125 686.1646875 181.1875 685.3125 C185.8176722 682.65999245 190.30509507 679.25420527 192 674 C191.70194993 671.80252869 191.70194993 671.80252869 191 670 C186.14217467 671.52402363 183.93646313 672.57802199 181.5 677.125 C180.296875 679.28125 180.296875 679.28125 179 681 C175.75 681.625 175.75 681.625 172 682 C169.62986318 683.3993893 167.44476207 684.97702288 165.20703125 686.578125 C162.3030736 688.44899329 159.3270258 689.1519346 156 690 C154.64886795 690.97581759 153.31053056 691.97029741 152 693 C151.01 693 150.02 693 149 693 C149 693.66 149 694.32 149 695 C144.86901256 696.9492324 140.73677228 698.89567813 136.6015625 700.8359375 C133.86155072 702.12183508 131.12784043 703.41810686 128.3984375 704.7265625 C122.15881164 707.68696893 115.97850359 710.14291547 109.36328125 712.140625 C106.8533352 712.86474115 106.8533352 712.86474115 105 715 C102.375 714.625 102.375 714.625 100 714 C100 712.35 100 710.7 100 709 C100.66 709 101.32 709 102 709 C102 708.34 102 707.68 102 707 C95.73 707 89.46 707 83 707 C83 708.65 83 710.3 83 712 C82.3709375 711.96519531 81.741875 711.93039062 81.09375 711.89453125 C76.61692887 711.75294504 73.05117029 711.73852898 68.9375 713.625 C64.34902761 715.64242651 60.62211362 714.48720786 56 713 C55.79074788 709.93096897 55.74499191 707.61201942 56.9375 704.75 C59.66785049 702.43333898 62.12357289 702.20067568 65.58984375 701.546875 C72.67230897 699.93983265 76.65551896 696.62226958 81 691 C81.66 691 82.32 691 83 691 C83 690.34 83 689.68 83 689 C83.99 689 84.98 689 86 689 C86 688.34 86 687.68 86 687 C87.42114258 685.87084961 87.42114258 685.87084961 89.39453125 684.65234375 C90.45704102 683.99202148 90.45704102 683.99202148 91.54101562 683.31835938 C92.29060547 682.86267578 93.04019531 682.40699219 93.8125 681.9375 C94.55048828 681.47794922 95.28847656 681.01839844 96.04882812 680.54492188 C99.03870073 678.70229451 101.65305226 677.11564925 105 676 C104.36707031 676.16371094 103.73414063 676.32742188 103.08203125 676.49609375 C98.93248907 677.17453601 94.88358502 677.10555375 90.6875 677.0625 C89.85154297 677.05798828 89.01558594 677.05347656 88.15429688 677.04882812 C86.10283351 677.03710548 84.05140727 677.01917203 82 677 C82 674.69 82 672.38 82 670 C79.69 670 77.38 670 75 670 C74.63076923 662.61538462 74.63076923 662.61538462 76.5 659.5 C76.995 659.005 77.49 658.51 78 658 C72.17251381 655.57188075 66.2242509 655.38272093 60 655 C59.67 654.01 59.34 653.02 59 652 C58.34 652.495 57.68 652.99 57 653.5 C53.03366759 655.48316621 50.39696738 655.22357461 46 655 C46 653.68 46 652.36 46 651 C47.65 650.67 49.3 650.34 51 650 C51 649.34 51 648.68 51 648 C53.31 648 55.62 648 58 648 C58.33 646.68 58.66 645.36 59 644 C60.65 644 62.3 644 64 644 C64.33 645.65 64.66 647.3 65 649 C65.845625 648.2575 66.69125 647.515 67.5625 646.75 C71.64095828 643.34806324 75.93266734 640.68911089 81 639 C81 638.34 81 637.68 81 637 C82.32 636.34 83.64 635.68 85 635 C83.7625 634.38125 83.7625 634.38125 82.5 633.75 C81.675 633.1725 80.85 632.595 80 632 C80 630.68 80 629.36 80 628 C80.99 627.67 81.98 627.34 83 627 C83.34342449 625.66923011 83.67619874 624.33568021 84 623 C87.4352048 620.70986347 88.985331 620.82157027 93 621 C93 622.32 93 623.64 93 625 C93.66 625 94.32 625 95 625 C94.79375 624.071875 94.5875 623.14375 94.375 622.1875 C94 619 94 619 96 616 C97.9453125 615.48828125 97.9453125 615.48828125 100.125 615.3125 C102.043125 615.1578125 102.043125 615.1578125 104 615 C104.12375 614.0925 104.2475 613.185 104.375 612.25 C106.57773377 607.84453245 109.1056912 607.28865974 113.58984375 605.6640625 C116 605 116 605 119 605 C119 604.34 119 603.68 119 603 C122.66983162 601.37680524 126.08095153 599.8930575 130 599 C129.94199219 598.19175781 129.88398438 597.38351562 129.82421875 596.55078125 C129.45283135 587.75420543 129.45283135 587.75420543 132.3125 583.8125 C135 582 135 582 138 581 C138.33 580.01 138.66 579.02 139 578 C140.71266423 577.30834714 142.42685788 576.61995264 144.15234375 575.9609375 C147.25254095 574.34857278 148.87697978 571.72959743 151 569 C151.66 569 152.32 569 153 569 C153 568.34 153 567.68 153 567 C153.99 566.34 154.98 565.68 156 565 C158.0311783 561.84038931 158.49734762 558.68611749 159 555 C159.66 555 160.32 555 161 555 C161.38671875 553.92685547 161.38671875 553.92685547 161.78125 552.83203125 C163.07384765 549.82839889 164.6277709 547.36494628 166.5 544.6875 C167.1084375 543.80449219 167.716875 542.92148437 168.34375 542.01171875 C168.8903125 541.34785156 169.436875 540.68398438 170 540 C170.66 540 171.32 540 172 540 C172.28875 539.401875 172.5775 538.80375 172.875 538.1875 C174 536 174 536 176 533 C176.66 533 177.32 533 178 533 C178 532.34 178 531.68 178 531 C178.46921875 530.5359375 178.9384375 530.071875 179.421875 529.59375 C181.5072925 527.4876848 182.03225308 525.12674244 182.98828125 522.375 C184.62569187 518.53119438 186.98986229 515.17999203 189.28125 511.69921875 C191.48196317 508.24309875 193.2533404 504.70291836 195 501 C195.66 501 196.32 501 197 501 C197.26941406 500.12472656 197.53882813 499.24945313 197.81640625 498.34765625 C198.94563014 495.15377877 200.3157676 492.40448624 201.9375 489.4375 C204.76704198 483.93676024 206.22543807 478.67938876 207.359375 472.6171875 C208 470 208 470 210 468 C210.64767793 465.42938689 210.64767793 465.42938689 211 463 C212.32 463 213.64 463 215 463 C215.01458252 462.44127197 215.02916504 461.88254395 215.04418945 461.30688477 C215.11960798 458.72479948 215.21594881 456.14387816 215.3125 453.5625 C215.33505859 452.68400391 215.35761719 451.80550781 215.38085938 450.90039062 C215.59531609 445.61695705 216.41497422 441.26872103 218.2277832 436.31396484 C227.41501322 408.78422532 224.86233929 371.33122662 221 343 C220.67 342.67 220.34 342.34 220 342 C219.92794489 340.31391034 219.91613932 338.62499341 219.9375 336.9375 C219.95103516 335.55884766 219.95103516 335.55884766 219.96484375 334.15234375 C219.98224609 333.08693359 219.98224609 333.08693359 220 332 C219.34 332 218.68 332 218 332 C214.65671642 312.68656716 214.65671642 312.68656716 217 308 C216.38125 307.608125 215.7625 307.21625 215.125 306.8125 C212.55978372 304.62452141 211.88451719 303.24322971 211 300 C210.92353835 297.6679198 210.90856701 295.33154122 211 293 C210.34 293 209.68 293 209 293 C208.74605469 292.20335937 208.49210938 291.40671875 208.23046875 290.5859375 C206.12868682 284.00727937 206.12868682 284.00727937 203.25 277.75 C201.95945561 274.91080233 201.94014172 273.81916553 202.125 270.8125 C202.063125 268.9253125 202.063125 268.9253125 202 267 C200.36368108 265.95107762 198.69514137 264.95093297 197 264 C196.375 260.5625 196.375 260.5625 196 257 C195.01268258 255.65724831 194.01405257 254.32267727 193 253 C192.75 250.3125 192.75 250.3125 193 248 C194 247 194 247 196.5625 246.9375 C197.366875 246.958125 198.17125 246.97875 199 247 C199.33 247.99 199.66 248.98 200 250 C200.99 250.66 201.98 251.32 203 252 C203.36162029 253.32594105 203.69728039 254.65938457 204 256 C204.66 256.33 205.32 256.66 206 257 C206 259.31 206 261.62 206 264 C205.34 264 204.68 264 204 264 C204 264.66 204 265.32 204 266 C205.32 266 206.64 266 208 266 C210.04439866 269.06659799 210.89707779 271.49660003 212 275 C212.4338573 276.33452309 212.87171778 277.66774812 213.3125 279 C213.56257812 279.75925781 213.81265625 280.51851563 214.0703125 281.30078125 C214.783626 283.37178809 215.53583632 285.42943161 216.3046875 287.48046875 C216.76101563 288.70378906 217.21734375 289.92710937 217.6875 291.1875 C218.34298828 292.91033203 218.34298828 292.91033203 219.01171875 294.66796875 C220.18974311 298.63972676 220.90472436 302.19055127 219 306 C219.99 306 220.98 306 222 306 C223.7379735 311.21392049 224.3497151 316.05990031 224.65625 321.546875 C224.85438407 324.25160001 224.85438407 324.25160001 227 327 C227.165 328.03125 227.33 329.0625 227.5 330.125 C227.665 331.07375 227.83 332.0225 228 333 C228.66 333.33 229.32 333.66 230 334 C229.67 331.69 229.34 329.38 229 327 C230.65 326.67 232.3 326.34 234 326 C233.80528889 324.05000871 233.80528889 324.05000871 233 322 C230.99786055 320.8529475 230.99786055 320.8529475 229 320 C229.35807292 317.94921875 229.71614583 315.8984375 230.07421875 313.84765625 C229.98408117 310.38921945 229.01769178 307.71791154 227.86206055 304.4777832 C226.98758219 301.96430802 226.2458893 299.44320016 225.53515625 296.87890625 C225.29216797 296.00556641 225.04917969 295.13222656 224.79882812 294.23242188 C224.30921942 292.4571033 223.82222543 290.68106149 223.33789062 288.90429688 C221.86236558 283.62121642 220.11793802 278.57204416 218.02416992 273.50268555 C216.98743028 270.96928434 216.02040199 268.41861959 215.0703125 265.8515625 C210.08128377 251.42917434 210.08128377 251.42917434 203 238 C202.01 237.67 201.02 237.34 200 237 C199.3046875 235.0390625 199.3046875 235.0390625 198.875 232.625 C198.38069163 229.96267247 197.86000993 227.5800298 197 225 C196.34 225 195.68 225 195 225 C193.2734375 222.734375 193.2734375 222.734375 191.375 219.75 C190.74335937 218.77546875 190.11171875 217.8009375 189.4609375 216.796875 C188 214 188 214 188 210 C187.34 210 186.68 210 186 210 C182 204.70588235 182 204.70588235 182 201 C181.01 200.67 180.02 200.34 179 200 C179 199.34 179 198.68 179 198 C177.68 197.34 176.36 196.68 175 196 C175 195.34 175 194.68 175 194 C172.525 193.01 172.525 193.01 170 192 C170 191.01 170 190.02 170 189 C169.1028125 188.62875 169.1028125 188.62875 168.1875 188.25 C165.66413131 186.80807503 164.49969924 185.47450374 163 183 C163 182.01 163 181.02 163 180 C162.3709375 180.08121094 161.741875 180.16242188 161.09375 180.24609375 C157.17646114 180.53517079 154.17937617 180.70031803 150.73046875 178.65234375 C147.60480558 175.93307655 144.91426419 172.96584518 142.3125 169.75 C140.03518767 167.0418448 138.03122678 165.73212959 135 164 C135 163.34 135 162.68 135 162 C134.26136719 161.72800781 133.52273438 161.45601562 132.76171875 161.17578125 C130.14975099 160.06375537 128.11737714 158.82642765 125.8125 157.1875 C115.71289807 150.31508875 104.53617145 145.28042324 92.4453125 143.39453125 C90.25214155 143.04068098 88.14462731 142.57356312 86 142 C86 141.34 86 140.68 86 140 C80.3223603 137.05603867 75.2489092 135.59569848 68.875 134.9375 C67.74602295 134.80964111 67.74602295 134.80964111 66.59423828 134.67919922 C61.56776027 134.12094069 56.54783459 133.72139731 51.4921875 133.5390625 C49 133 49 133 46.09375 130.98046875 C40.52115147 127.61610848 33.9074878 128.54428219 27.625 128.6875 C25.68173828 128.70200195 25.68173828 128.70200195 23.69921875 128.71679688 C17.97239849 128.23724963 17.97239849 128.23724963 13 130 C11.20512974 130.19256324 9.40363748 130.32401999 7.6015625 130.4296875 C6.48136719 130.50316406 5.36117188 130.57664063 4.20703125 130.65234375 C1.85840019 130.79833281 -0.49055986 130.93914155 -2.83984375 131.07421875 C-9.4120741 131.51535822 -15.41391938 132.40100709 -21.71875 134.33447266 C-24 135 -24 135 -27.625 135.5 C-31.12217325 136.01809974 -34.15308591 136.94886638 -37.4765625 138.1171875 C-39.29547755 138.7535262 -41.12521057 139.35923609 -42.9609375 139.9453125 C-48.95639011 141.86325326 -54.46056468 144.03135234 -60 147 C-71.3709001 152.92788327 -71.3709001 152.92788327 -76.375 154.4375 C-86.6920976 157.64064222 -96.04099525 163.43385231 -104.96484375 169.3984375 C-108.37209134 171.19634163 -111.20310421 171.54401133 -115 172 C-117.63624434 173.89229266 -117.63624434 173.89229266 -120 176 C-122.8125 177.25 -122.8125 177.25 -125 178 C-125 178.66 -125 179.32 -125 180 C-125.75925781 180.39832031 -126.51851562 180.79664063 -127.30078125 181.20703125 C-128.29464844 181.73683594 -129.28851563 182.26664063 -130.3125 182.8125 C-131.29863281 183.33457031 -132.28476563 183.85664063 -133.30078125 184.39453125 C-135.6346536 185.78269556 -137.13356696 187.08762399 -139 189 C-139.66 189 -140.32 189 -141 189 C-141.33 189.99 -141.66 190.98 -142 192 C-142.66 192 -143.32 192 -144 192 C-144 192.66 -144 193.32 -144 194 C-144.66 194 -145.32 194 -146 194 C-146 194.66 -146 195.32 -146 196 C-146.66 196 -147.32 196 -148 196 C-148 196.66 -148 197.32 -148 198 C-148.66 198 -149.32 198 -150 198 C-150.33 198.99 -150.66 199.98 -151 201 C-152.55859375 202.60546875 -152.55859375 202.60546875 -154.4375 204.1875 C-155.05496094 204.71730469 -155.67242187 205.24710938 -156.30859375 205.79296875 C-158 207 -158 207 -160 207 C-160 207.66 -160 208.32 -160 209 C-161.4609375 210.2890625 -161.4609375 210.2890625 -163.375 211.625 C-164.00148437 212.07101563 -164.62796875 212.51703125 -165.2734375 212.9765625 C-167 214 -167 214 -169 214 C-169.12375 214.61875 -169.2475 215.2375 -169.375 215.875 C-170 218 -170 218 -172 220 C-172.185625 221.546875 -172.185625 221.546875 -172.375 223.125 C-173.43481928 227.42661945 -176.29341169 228.71421146 -179.9375 230.9375 C-184.52441123 233.79545658 -187.05900331 235.38402954 -188.359375 240.6484375 C-189.24313047 243.89246674 -190.68495088 246.77763013 -192.125 249.8125 C-193.56572065 252.86955153 -194.9313468 255.79404039 -196 259 C-196.66 259 -197.32 259 -198 259 C-198.12890625 259.73089844 -198.2578125 260.46179688 -198.390625 261.21484375 C-198.96353854 263.83335241 -199.72924329 266.09009339 -200.75 268.5625 C-201.28367188 269.86767578 -201.28367188 269.86767578 -201.828125 271.19921875 C-202.62361094 273.10043014 -203.42593549 274.99879177 -204.234375 276.89453125 C-206.86348358 283.08591966 -209.17312957 289.28476599 -211.203125 295.69921875 C-212 298 -212 298 -213 299 C-213.55950364 301.3452769 -214.07329579 303.70155796 -214.5625 306.0625 C-214.96662109 307.99802734 -214.96662109 307.99802734 -215.37890625 309.97265625 C-215.68634766 311.47119141 -215.68634766 311.47119141 -216 313 C-217.65 313 -219.3 313 -221 313 C-221.144375 313.78375 -221.28875 314.5675 -221.4375 315.375 C-222.33134328 319.54626866 -222.33134328 319.54626866 -224.75 321.1875 C-227.54505926 322.19682696 -229.15299964 321.66461432 -232 321 C-232.0816082 318.62429457 -232.14077222 316.25144159 -232.1875 313.875 C-232.21263672 313.20984375 -232.23777344 312.5446875 -232.26367188 311.859375 C-232.33320714 307.13097708 -231.40278375 304.04878521 -229 300 C-228.34 300 -227.68 300 -227 300 C-226.49357075 296.93852743 -225.99600678 293.87567701 -225.5 290.8125 C-225.35691406 289.94818359 -225.21382812 289.08386719 -225.06640625 288.19335938 C-224.40685738 284.09473423 -223.79290734 280.16773976 -224 276 C-223.01 275.67 -222.02 275.34 -221 275 C-220.896875 274.154375 -220.79375 273.30875 -220.6875 272.4375 C-219.93144264 268.6572132 -218.56231154 265.51520097 -217 262 C-216.62691369 260.67723944 -216.26953585 259.34767923 -216 258 C-217.66611905 257.957279 -219.33382885 257.95936168 -221 258 C-222.99616554 259.99616554 -222.40983427 263.81701963 -222.5625 266.5625 C-222.60568359 267.27341797 -222.64886719 267.98433594 -222.69335938 268.71679688 C-222.79971777 270.47761912 -222.90038846 272.2387832 -223 274 C-224.32 274.33 -225.64 274.66 -227 275 C-227 275.66 -227 276.32 -227 277 C-228.98689731 278.35278115 -230.98745218 279.68568305 -233 281 C-234.23642408 283.47284817 -234.14126268 285.30134868 -234.25 288.0625 C-234.65822033 293.17529236 -235.97500596 296.55545697 -238.74609375 300.83203125 C-242.57790516 307.45712574 -242.63254555 314.54592411 -243 322 C-243.08121094 323.43085937 -243.08121094 323.43085937 -243.1640625 324.890625 C-243.32566794 329.79755392 -243.24027713 333.03966128 -240 337 C-239.4778038 337.4284874 -238.9556076 337.85697479 -238.41758728 338.29844666 C-236.4478352 340.66277249 -236.62801879 342.23507177 -236.63110352 345.28735352 C-236.62422012 346.37021133 -236.61733673 347.45306915 -236.61024475 348.56874084 C-236.61640305 349.74359543 -236.62256134 350.91845001 -236.62890625 352.12890625 C-236.61149516 354.63476679 -236.59391117 357.14062614 -236.57617188 359.64648438 C-236.56618311 363.58230106 -236.56248047 367.51802871 -236.56420898 371.45385742 C-236.551075 385.25767673 -236.51787152 398.42112471 -232.85522461 411.80444336 C-232 415 -232 415 -232 418 C-231.34 418 -230.68 418 -230 418 C-229.97303635 419.79158489 -229.95362083 421.58328473 -229.9375 423.375 C-229.92589844 424.37273437 -229.91429687 425.37046875 -229.90234375 426.3984375 C-230 429 -230 429 -231 431 C-232.20962815 442.69307209 -227.55229789 455.04820196 -220.9609375 464.58984375 C-216.47073239 470.1086815 -211.77336761 474.61149668 -205 477 C-205 477.66 -205 478.32 -205 479 C-204.34 479 -203.68 479 -203 479 C-202.74605469 479.83402344 -202.49210938 480.66804688 -202.23046875 481.52734375 C-199.19746519 492.48038991 -199.19746519 492.48038991 -195 503 C-194.67 502.34 -194.34 501.68 -194 501 C-192.35 501.33 -190.7 501.66 -189 502 C-188.375 504.875 -188.375 504.875 -188 508 C-188.66 508.66 -189.32 509.32 -190 510 C-189.01 510.680625 -189.01 510.680625 -188 511.375 C-187.34 511.91125 -186.68 512.4475 -186 513 C-186 513.66 -186 514.32 -186 515 C-185.34 515 -184.68 515 -184 515 C-178.45945946 519.86486486 -178.45945946 519.86486486 -178 524 C-179.98 524.33 -181.96 524.66 -184 525 C-183.2059375 525.55429687 -182.411875 526.10859375 -181.59375 526.6796875 C-180.5728125 527.40414062 -179.551875 528.12859375 -178.5 528.875 C-177.4790625 529.59429688 -176.458125 530.31359375 -175.40625 531.0546875 C-174.6121875 531.69664062 -173.818125 532.33859375 -173 533 C-173 533.66 -173 534.32 -173 535 C-172.443125 535.2475 -171.88625 535.495 -171.3125 535.75 C-168.51259025 537.26346473 -166.28798711 538.77556809 -164 541 C-163.6875 543.75 -163.6875 543.75 -164 546 C-164.66 546 -165.32 546 -166 546 C-166 546.99 -166 547.98 -166 549 C-171.20995784 550.78557241 -176.03189204 548.90468279 -181 547 C-182.8046875 545.75390625 -182.8046875 545.75390625 -184.25 544.4375 C-189.13956794 540.10356478 -195.50866213 539.64045323 -201.765625 538.46484375 C-206.54884809 537.46973265 -208.19691025 535.96298896 -211 532 C-211 531.34 -211 530.68 -211 530 C-211.99 529.67 -212.98 529.34 -214 529 C-214.33 528.34 -214.66 527.68 -215 527 C-215.33 528.98 -215.66 530.96 -216 533 C-220.75 533.125 -220.75 533.125 -223 532 C-223 532.99 -223 533.98 -223 535 C-222.34 535 -221.68 535 -221 535 C-220.75765625 535.66386719 -220.5153125 536.32773437 -220.265625 537.01171875 C-217.34717121 545.32231647 -217.34717121 545.32231647 -211 551 C-211 551.66 -211 552.32 -211 553 C-205.06 554.485 -205.06 554.485 -199 556 C-199.680625 555.0925 -200.36125 554.185 -201.0625 553.25 C-203 550 -203 550 -202.75 547.625 C-202.37875 546.820625 -202.37875 546.820625 -202 546 C-195.59903382 545.51690821 -195.59903382 545.51690821 -193.0625 547.5625 C-191.65092195 550.80082611 -191.79854653 553.50813979 -192 557 C-192.99 557 -193.98 557 -195 557 C-194.67 557.99 -194.34 558.98 -194 560 C-194.27769908 562.3406065 -194.60539977 564.67624308 -195 567 C-194.44054687 566.91878906 -193.88109375 566.83757813 -193.3046875 566.75390625 C-184.4210334 566.05406855 -175.66822254 570.02499096 -168.921875 575.76953125 C-166.23471228 577.4899708 -164.71966558 576.9430619 -161.625 576.375 C-152.71109132 575.33467896 -144.79579082 578.93013862 -137 583 C-137 583.66 -137 584.32 -137 585 C-136.01 585 -135.02 585 -134 585 C-134 585.66 -134 586.32 -134 587 C-128.76497195 587.90711342 -124.50467532 588.47876292 -119.5 586.4375 C-110.92485171 583.2273925 -101.88910727 587.91168281 -93.68383789 590.79077148 C-89.16002566 592.36407663 -84.68503058 593.60242446 -79.99023438 594.55810547 C-68.57724316 597.09214792 -59.35470944 606.60889519 -52.0625 615.3125 C-51 617 -51 617 -51 619 C-50.34 619 -49.68 619 -49 619 C-45.13213408 623.27795291 -41.90063349 628.02748545 -39 633 C-36.41284812 636.35135994 -36.41284812 636.35135994 -33.48706055 639.3972168 C-28.0346826 645.11077654 -28.3274495 651.35360113 -28.47265625 658.7890625 C-28.52277329 660.35939634 -28.57356277 661.92970885 -28.625 663.5 C-28.65513773 665.10151236 -28.68250683 666.70307935 -28.70703125 668.3046875 C-28.77272869 672.20448738 -28.87603047 676.10163518 -29 680 C-29.6384082 680.28536621 -30.27681641 680.57073242 -30.93457031 680.86474609 C-33.18006046 681.83938338 -33.18006046 681.83938338 -34.046875 684.1640625 C-34.27890625 684.97617187 -34.5109375 685.78828125 -34.75 686.625 C-34.99234375 687.44226563 -35.2346875 688.25953125 -35.484375 689.1015625 C-35.65453125 689.72804688 -35.8246875 690.35453125 -36 691 C-36.66 691 -37.32 691 -38 691 C-38.12375 691.61875 -38.2475 692.2375 -38.375 692.875 C-39 695 -39 695 -41 697 C-41.99 697 -42.98 697 -44 697 C-44.103125 697.845625 -44.20625 698.69125 -44.3125 699.5625 C-45.4551382 705.27569102 -46.5499482 709.36527865 -51.4765625 712.66015625 C-52.84806295 713.48016084 -54.23137876 714.28068106 -55.625 715.0625 C-56.99312895 715.86428112 -58.36030988 716.66768198 -59.7265625 717.47265625 C-60.42894043 717.87266846 -61.13131836 718.27268066 -61.85498047 718.68481445 C-64.04119045 719.97376097 -64.04119045 719.97376097 -66.08642578 721.60229492 C-72.41419735 726.41033686 -77.80466171 726.96235513 -85.625 727.1875 C-92.678841 727.47117788 -99.35239961 727.98347027 -106.2578125 729.51953125 C-113.89487408 731.14241913 -121.25970227 731.52534372 -129.05371094 731.50097656 C-131.26365681 731.49999393 -133.47022942 731.54204098 -135.6796875 731.5859375 C-144.48471683 731.65947106 -151.23778734 730.42093061 -159 726 C-160.05832031 725.51015625 -161.11664063 725.0203125 -162.20703125 724.515625 C-167.93026953 721.73552125 -173.37890622 718.65116996 -178.75 715.25 C-179.37108643 714.86102539 -179.99217285 714.47205078 -180.63208008 714.07128906 C-182.12621025 713.10406416 -183.56902037 712.05841688 -185 711 C-185 710.34 -185 709.68 -185 709 C-185.5465625 708.91878906 -186.093125 708.83757813 -186.65625 708.75390625 C-189.8173064 707.73709977 -191.88858429 705.98381097 -194.5 703.9375 C-204.07751585 696.56142304 -214.23583974 689.19292559 -225.171875 683.9609375 C-227.53196352 682.72037815 -228.59882007 681.24188789 -230 679 C-230 678.34 -230 677.68 -230 677 C-231.32 676.34 -232.64 675.68 -234 675 C-234 674.34 -234 673.68 -234 673 C-234.66 673 -235.32 673 -236 673 C-236.21914062 672.46890625 -236.43828125 671.9378125 -236.6640625 671.390625 C-239.02260145 666.13664393 -241.07687811 663.90911748 -246 661 C-246 660.34 -246 659.68 -246 659 C-246.53625 658.78214844 -247.0725 658.56429687 -247.625 658.33984375 C-250.83418679 656.52939791 -253.34532933 654.08246585 -256 651.5625 C-260.03284864 647.73875536 -260.03284864 647.73875536 -264.375 644.27734375 C-264.91125 643.85582031 -265.4475 643.43429687 -266 643 C-266 642.34 -266 641.68 -266 641 C-266.66 641 -267.32 641 -268 641 C-268 640.34 -268 639.68 -268 639 C-268.53625 638.773125 -269.0725 638.54625 -269.625 638.3125 C-272.82460161 636.54429911 -275.29037223 634.46329797 -278 632 C-278 631.34 -278 630.68 -278 630 C-278.57435791 629.75161377 -279.14871582 629.50322754 -279.74047852 629.24731445 C-282.33942136 627.81263061 -284.06959671 626.15681942 -286.15234375 624.04296875 C-287.31733398 622.86831055 -287.31733398 622.86831055 -288.50585938 621.66992188 C-289.30830078 620.85072266 -290.11074219 620.03152344 -290.9375 619.1875 C-291.73607422 618.37990234 -292.53464844 617.57230469 -293.35742188 616.74023438 C-296.10168853 613.96413695 -298.83940052 611.18165222 -301.57470703 608.39672852 C-303.643847 606.30473582 -305.70887199 604.4240415 -308 602.5625 C-313.42637066 597.92747506 -316.26966825 593.52905419 -319 587 C-320.31037934 585.31522656 -321.63823078 583.64351457 -323 582 C-323 581.34 -323 580.68 -323 580 C-323.66 580 -324.32 580 -325 580 C-326.32519531 578.44628906 -326.32519531 578.44628906 -327.828125 576.265625 C-328.65328613 575.07090576 -328.65328613 575.07090576 -329.49511719 573.85205078 C-330.07422852 572.99337402 -330.65333984 572.13469727 -331.25 571.25 C-332.13026855 569.95231689 -332.13026855 569.95231689 -333.02832031 568.62841797 C-343.52722475 552.93270206 -343.52722475 552.93270206 -345 544 C-345.66 544 -346.32 544 -347 544 C-348.4606285 541.35261084 -349 540.10551666 -349 537 C-349.66 537 -350.32 537 -351 537 C-351.33 534.69 -351.66 532.38 -352 530 C-352.66 530 -353.32 530 -354 530 C-354 528.68 -354 527.36 -354 526 C-354.66 526 -355.32 526 -356 526 C-356.58333333 524.6875 -357.16666667 523.375 -357.75 522.0625 C-358.11609375 521.24136719 -358.4821875 520.42023437 -358.859375 519.57421875 C-359.58595517 517.93443678 -360.30548869 516.29150122 -361.015625 514.64453125 C-362.54571672 511.11681978 -364.06895051 507.8372411 -366.1875 504.625 C-368.48878072 500.82788682 -368.43992314 497.10704042 -368.43359375 492.74609375 C-369.10815239 489.47564736 -370.67191812 488.09519072 -372.86206055 485.67163086 C-374.96663815 482.58001042 -374.70355313 479.1937182 -374.6875 475.5625 C-374.70433811 474.10535602 -374.72899472 472.64828004 -374.76171875 471.19140625 C-374.76131592 470.55404541 -374.76091309 469.91668457 -374.76049805 469.26000977 C-375.1001507 466.05494897 -376.11177646 463.09662547 -377 460 C-379.82571826 448.81559238 -380.42021545 438.28463056 -380.328125 426.796875 C-380.32505795 425.09914315 -380.32318904 423.40140877 -380.32244873 421.70367432 C-380.3178902 418.18076647 -380.3036262 414.65809294 -380.28125 411.13525391 C-380.25270845 406.61942662 -380.24200731 402.10378053 -380.2375679 397.58787155 C-380.23341879 394.09808551 -380.22360977 390.6083359 -380.21169281 387.11856842 C-380.20600213 385.45198098 -380.20123949 383.7853901 -380.19742584 382.1187973 C-380.19056577 379.8027677 -380.17694136 377.48688208 -380.16113281 375.17089844 C-380.15089081 373.19691071 -380.15089081 373.19691071 -380.14044189 371.18304443 C-380 368 -380 368 -379 365 C-377.35 364.67 -375.7 364.34 -374 364 C-374 363.01 -374 362.02 -374 361 C-375.98 361 -377.96 361 -380 361 C-379.67 359.02 -379.34 357.04 -379 355 C-377.35 355 -375.7 355 -374 355 C-374.06900513 353.33445068 -374.06900513 353.33445068 -374.1394043 351.63525391 C-374.30568599 347.52458091 -374.45192321 343.41339899 -374.59204102 339.30175781 C-374.65555993 337.52062902 -374.7245502 335.73968674 -374.79907227 333.95898438 C-374.90511241 331.40263405 -374.99160304 328.84626349 -375.07421875 326.2890625 C-375.11157639 325.49005524 -375.14893402 324.69104797 -375.18742371 323.86782837 C-375.2487793 321.62353516 -375.2487793 321.62353516 -375 318 C-371.77208445 315.8480563 -370.71599191 315.79913557 -367 316 C-367 313.03 -367 310.06 -367 307 C-366.34 307 -365.68 307 -365 307 C-365.061875 305.96875 -365.12375 304.9375 -365.1875 303.875 C-364.98233516 299.63492665 -363.88862672 297.74066988 -362 294 C-361.2833793 291.68152126 -360.61757973 289.34680297 -360 287 C-358.76494033 282.30677327 -357.18920576 278.32018796 -355 274 C-352.10951214 264.92707978 -350.67479266 255.35983415 -349 246 C-348.34 246 -347.68 246 -347 246 C-347 245.34 -347 244.68 -347 244 C-346.34 244 -345.68 244 -345 244 C-344.88398438 243.45472656 -344.76796875 242.90945312 -344.6484375 242.34765625 C-343.88299122 239.57637184 -342.78163254 237.06971526 -341.625 234.4375 C-339.95814049 230.52132724 -338.60605289 226.76381689 -337.625 222.625 C-335.17978093 213.01179588 -330.35407679 203.35407679 -323.3125 196.3125 C-320.34586836 194.6287361 -317.45310988 194.07024372 -314.12109375 193.4296875 C-311.82563303 193.00941969 -311.82563303 193.00941969 -309 192 C-308.34 192.33 -307.68 192.66 -307 193 C-306.945652 195.0622048 -306.90705039 197.12482816 -306.875 199.1875 C-306.85179687 200.33605469 -306.82859375 201.48460937 -306.8046875 202.66796875 C-306.99515848 205.91740372 -307.60639873 208.08660521 -309 211 C-307.68 211.33 -306.36 211.66 -305 212 C-305 213.65 -305 215.3 -305 217 C-301.7 217 -298.4 217 -295 217 C-295 217.66 -295 218.32 -295 219 C-294.34 219 -293.68 219 -293 219 C-292.505 221.475 -292.505 221.475 -292 224 C-291.01 223.34 -290.02 222.68 -289 222 C-286.3125 222.375 -286.3125 222.375 -284 223 C-284.48113292 225.72641988 -285.06194126 228.16031856 -286.0625 230.75 C-287.26115231 234.90532802 -287.17167018 238.70824562 -287 243 C-286.67 242.67 -286.34 242.34 -286 242 C-285.34 242 -284.68 242 -284 242 C-284 241.01 -284 240.02 -284 239 C-283.34 239 -282.68 239 -282 239 C-281.896875 237.865625 -281.79375 236.73125 -281.6875 235.5625 C-281.10258567 230.7984152 -279.63096571 226.49401964 -278 222 C-277.67 221.01 -277.34 220.02 -277 219 C-275.22265625 218.3046875 -275.22265625 218.3046875 -273.0625 217.875 C-270.81226851 217.40943487 -269.06266481 217.03133241 -267 216 C-265.90311223 213.52201062 -265.01551704 210.99451293 -264.09765625 208.4453125 C-263.00297674 206.00663146 -261.92105472 204.79797879 -260 203 C-259.835 202.29875 -259.67 201.5975 -259.5 200.875 C-259.335 200.25625 -259.17 199.6375 -259 199 C-258.01 198.67 -257.02 198.34 -256 198 C-255.34 197.01 -254.68 196.02 -254 195 C-252.68 195 -251.36 195 -250 195 C-249.9484375 194.39671875 -249.896875 193.7934375 -249.84375 193.171875 C-248.9315209 186.74480636 -248.9315209 186.74480636 -246.2265625 184.58203125 C-244.17966162 183.589018 -242.13670565 182.77808338 -240 182 C-238.6593269 181.34821948 -237.32370062 180.68559382 -236 180 C-236 179.34 -236 178.68 -236 178 C-235.34 178 -234.68 178 -234 178 C-233.71125 177.2575 -233.4225 176.515 -233.125 175.75 C-232.17697356 173.43260203 -231.15154089 171.22082885 -230 169 C-229.34 169 -228.68 169 -228 169 C-227.81824219 168.34773437 -227.63648438 167.69546875 -227.44921875 167.0234375 C-227.07216797 165.71246094 -227.07216797 165.71246094 -226.6875 164.375 C-226.44386719 163.51648438 -226.20023438 162.65796875 -225.94921875 161.7734375 C-223.85363609 155.65054167 -222.16827725 152.56911546 -216.3125 149.5625 C-209.92840652 146.07324939 -204.92341616 142.00939898 -199.875 136.8125 C-195.38259784 132.46984458 -190.94978728 130.42794895 -185 129 C-185.020625 127.989375 -185.04125 126.97875 -185.0625 125.9375 C-184.51722734 122.16667073 -182.87808991 120.54259553 -180 118.125 C-175.99624031 115.26697028 -173.34504838 114.57322888 -168.53515625 114.4375 C-163.86127349 113.63091314 -159.97140882 110.957046 -155.91796875 108.59375 C-153.50720699 107.27702872 -151.67427756 106.46621788 -149 106 C-149 105.34 -149 104.68 -149 104 C-145.42347934 101.40009384 -142.18054365 100.43956231 -137.875 99.625 C-132.47309085 98.45488949 -127.84488891 96.79209638 -122.8828125 94.390625 C-114.121924 90.16450534 -105.0483235 86.56105755 -96 83 C-95.16597656 82.65195313 -94.33195312 82.30390625 -93.47265625 81.9453125 C-91.29100169 81.11125183 -89.28257204 80.57599206 -87 80.125 C-83.19581126 79.22947534 -80.94171899 77.60552254 -78 75 C-76.515 74.505 -76.515 74.505 -75 74 C-75.185625 73.38125 -75.37125 72.7625 -75.5625 72.125 C-76 70 -76 70 -75 68 C-73.21484375 67.83203125 -73.21484375 67.83203125 -70.9375 67.8125 C-65.79752142 67.38621788 -63.31948735 65.23258115 -59.7265625 61.69140625 C-54.67079537 56.73858461 -48.76216689 55.92814055 -42 55 C-41.67 54.67 -41.34 54.34 -41 54 C-39.37990641 53.79095567 -37.75317119 53.63214143 -36.125 53.5 C-33.15077151 53.25720584 -30.84924786 52.94974929 -28 52 C-27.34 52.33 -26.68 52.66 -26 53 C-26 51.68 -26 50.36 -26 49 C-31.73758372 49 -36.61058706 50.19514409 -42 52 C-46.13547582 53.13399337 -50.29500482 54.1772292 -54.45117188 55.23242188 C-55.27810547 55.44576172 -56.10503906 55.65910156 -56.95703125 55.87890625 C-58.08588745 56.16616577 -58.08588745 56.16616577 -59.23754883 56.45922852 C-61.0080697 56.85187484 -61.0080697 56.85187484 -62 58 C-63.51928038 58.07179964 -65.04167482 58.08392007 -66.5625 58.0625 C-67.38878906 58.05347656 -68.21507812 58.04445312 -69.06640625 58.03515625 C-69.70449219 58.02355469 -70.34257812 58.01195312 -71 58 C-71.48125545 52.5858762 -71.48125545 52.5858762 -69.5625 50.25 C-65.86122146 48.44449827 -62.03441368 47.73274607 -58 47 C-58 46.34 -58 45.68 -58 45 C-57.38511719 44.95101562 -56.77023437 44.90203125 -56.13671875 44.8515625 C-55.32847656 44.77679688 -54.52023437 44.70203125 -53.6875 44.625 C-52.88699219 44.55539063 -52.08648437 44.48578125 -51.26171875 44.4140625 C-48.72775559 44.10435574 -48.72775559 44.10435574 -46 42 C-45.83329727 38.95826106 -45.83329727 38.95826106 -46 36 C-45.67 35.67 -45.34 35.34 -45 35 C-43.47480724 35.08937803 -41.95318071 35.24537146 -40.4375 35.4375 C-39.61121094 35.53933594 -38.78492188 35.64117187 -37.93359375 35.74609375 C-37.29550781 35.82988281 -36.65742188 35.91367187 -36 36 C-36 36.66 -36 37.32 -36 38 C-32.07703567 39.30765478 -29.13997567 39.1971417 -25 39 C-24.34 38.34 -23.68 37.68 -23 37 C-23.185625 36.030625 -23.37125 35.06125 -23.5625 34.0625 C-24 31 -24 31 -22.9765625 29.3828125 C-20.06426483 27.34535524 -17.31403953 27.23011481 -13.8125 26.8125 C-12.54019531 26.65394531 -11.26789063 26.49539062 -9.95703125 26.33203125 C-8.98121094 26.22246094 -8.00539063 26.11289062 -7 26 C-13.15426765 26.38977028 -19.01597369 26.85696061 -24.95703125 28.53515625 C-27.39298905 29.08941816 -29.75829416 29.26332941 -32.25 29.4375 C-36.32764668 29.74726598 -40.05047772 30.44099597 -44 31.5 C-47.87462598 32.53855954 -51.49872112 33.22404973 -55.5 33.5 C-64.12374127 34.12310269 -72.16421035 36.37231961 -80 40 C-85.9087655 42.59703833 -91.44892865 44.39136319 -97.80859375 45.49609375 C-100.580644 46.13351707 -102.62829213 47.4653655 -105 49 C-106.32 49 -107.64 49 -109 49 C-109 47.02 -109 45.04 -109 43 C-107.92621094 42.62488281 -106.85242188 42.24976563 -105.74609375 41.86328125 C-102.8141538 40.81584011 -99.88839798 39.7545367 -96.9765625 38.65234375 C-96.30447754 38.39960693 -95.63239258 38.14687012 -94.93994141 37.88647461 C-92.27223807 36.66744229 -90.09174903 35.01612817 -87.8359375 33.16015625 C-83.42580046 30.37332497 -77.9806058 29.39945856 -73 28 C-72.0409375 27.65066406 -71.081875 27.30132812 -70.09375 26.94140625 C-65.79904865 25.634559 -61.46380126 25.31235176 -57.00976562 24.96484375 C-53.26836 24.58460502 -50.54766686 23.93015396 -47.3046875 21.9765625 C-44.20079653 20.12009816 -42.58294126 19.46087502 -39.0625 19.25 C-38.20785156 19.18683594 -37.35320312 19.12367187 -36.47265625 19.05859375 C-34.27615295 19.00654391 -32.18637326 19.14024029 -30 19.3125 C-25.36242927 19.39664947 -22.24462748 17.05996527 -18.4609375 14.59765625 C-14.60701403 12.09566466 -10.39768468 9.46209923 -5.8515625 8.5859375 C-5.24054688 8.39257812 -4.62953125 8.19921875 -4 8 C-2.6954344 5.00384054 -2.6954344 5.00384054 -2 2 C-1.34 2 -0.68 2 0 2 C0 1.34 0 0.68 0 0 Z M54 81 C54.33 81.66 54.66 82.32 55 83 C56.32 82.67 57.64 82.34 59 82 C57.35 81.67 55.7 81.34 54 81 Z M218 97 C218.33 97.66 218.66 98.32 219 99 C219.66 98.67 220.32 98.34 221 98 C220.01 97.67 219.02 97.34 218 97 Z M-91.27734375 101.99609375 C-93 103 -93 103 -96.625 103.9375 C-100.64375828 105.20266464 -102.12397233 106.98017094 -105 110 C-108.50400017 112.20622233 -111.94262745 114.01851369 -115.75 115.625 C-119.06406226 116.90789771 -119.06406226 116.90789771 -122 119 C-122 119.66 -122 120.32 -122 121 C-122.66 121 -123.32 121 -124 121 C-124.33 121.66 -124.66 122.32 -125 123 C-126.60094299 123.44281402 -128.20343431 123.88064567 -129.8125 124.29296875 C-134.09522334 125.67720611 -138.0280746 127.90614798 -142 130 C-140.68 130.33 -139.36 130.66 -138 131 C-138.66 133.97 -139.32 136.94 -140 140 C-143.3 140.66 -146.6 141.32 -150 142 C-149.34 139.69 -148.68 137.38 -148 135 C-152.35934215 137.71549542 -152.35934215 137.71549542 -154.59179688 142.11328125 C-154.80825982 144.59951282 -154.81875714 147.00564386 -154.75 149.5 C-154.77320313 150.34175781 -154.79640625 151.18351562 -154.8203125 152.05078125 C-154.83057797 156.69556773 -154.83057797 156.69556773 -152.62451172 160.6081543 C-151.12796166 161.79763445 -149.5664965 162.90427476 -148 164 C-147.625 166.8125 -147.625 166.8125 -148 169 C-149.485 169.495 -149.485 169.495 -151 170 C-152.36639342 171.6396721 -153.6949419 173.31110128 -155 175 C-155.9075 175.86625 -156.815 176.7325 -157.75 177.625 C-160.34387232 179.81771583 -160.34387232 179.81771583 -160 183 C-160.66 183 -161.32 183 -162 183 C-162 183.66 -162 184.32 -162 185 C-160.68 185 -159.36 185 -158 185 C-157.9175 184.21625 -157.835 183.4325 -157.75 182.625 C-157 180 -157 180 -155.1875 178.9375 C-154.465625 178.628125 -153.74375 178.31875 -153 178 C-150.74934898 176.08333079 -150.74934898 176.08333079 -149 174 C-149 173.34 -149 172.68 -149 172 C-148.2575 171.87625 -147.515 171.7525 -146.75 171.625 C-144.19858515 171.04513299 -142.2732427 170.26291261 -140 169 C-140 168.34 -140 167.68 -140 167 C-139.42024414 166.88068115 -138.84048828 166.7613623 -138.24316406 166.63842773 C-134.35376569 165.53146466 -131.14944817 163.20367186 -127.75 161.0625 C-127.00492188 160.60681641 -126.25984375 160.15113281 -125.4921875 159.68164062 C-124.43644531 159.02131836 -124.43644531 159.02131836 -123.359375 158.34765625 C-122.39209473 157.74449585 -122.39209473 157.74449585 -121.40527344 157.12915039 C-120.9415332 156.75653076 -120.47779297 156.38391113 -120 156 C-120 155.34 -120 154.68 -120 154 C-115.05 153.67 -110.1 153.34 -105 153 C-105 152.34 -105 151.68 -105 151 C-104.29875 150.7525 -103.5975 150.505 -102.875 150.25 C-99.61585232 148.83297927 -96.93768649 146.99762681 -94 145 C-86.94985809 140.63197729 -86.94985809 140.63197729 -83 140 C-83 139.34 -83 138.68 -83 138 C-82.34 137.9175 -81.68 137.835 -81 137.75 C-77.00960837 136.75240209 -73.61450357 134.92833317 -70 133 C-70 132.34 -70 131.68 -70 131 C-74.29 131 -78.58 131 -83 131 C-80.75 124.25 -80.75 124.25 -78 121 C-78.495 120.01 -78.495 120.01 -79 119 C-79.59425781 119.25394531 -80.18851562 119.50789063 -80.80078125 119.76953125 C-86.27827651 122.04401218 -91.70453996 123.8445669 -97.45703125 125.2890625 C-100.06384549 126.01784928 -102.50618358 126.95232847 -105 128 C-105 128.66 -105 129.32 -105 130 C-105.99 130.33 -106.98 130.66 -108 131 C-108 131.66 -108 132.32 -108 133 C-110.31 132.34 -112.62 131.68 -115 131 C-115 129.02 -115 127.04 -115 125 C-113.989375 124.443125 -112.97875 123.88625 -111.9375 123.3125 C-109.25050376 121.78641694 -106.74133715 120.13983471 -104.25 118.3125 C-101 116 -101 116 -98 115 C-98 114.34 -98 113.68 -98 113 C-97.278125 112.7525 -96.55625 112.505 -95.8125 112.25 C-92.90822836 111.12341993 -92.90822836 111.12341993 -90.625 108.9375 C-87.40306221 106.55940306 -84.91770696 106.5078509 -81 106 C-78.99515224 104.83115894 -78.99515224 104.83115894 -78 103 C-78 101.68 -78 100.36 -78 99 C-83.5810913 98.60834447 -86.6080608 98.94351014 -91.27734375 101.99609375 Z M142 110 C142.99 111.485 142.99 111.485 144 113 C144.66 112.67 145.32 112.34 146 112 C144.68 111.34 143.36 110.68 142 110 Z M219 133 C220 135 220 135 220 135 Z M224 138 C225.55603771 141.81936528 227.95604931 144.26044438 231 147 C231.66 147 232.32 147 233 147 C233 146.01 233 145.02 233 144 C232.01 143.67 231.02 143.34 230 143 C228.66172696 141.33729713 227.32810215 139.67083819 226 138 C225.34 138 224.68 138 224 138 Z M233 147 C233 147.66 233 148.32 233 149 C233.66 148.67 234.32 148.34 235 148 C234.34 147.67 233.68 147.34 233 147 Z M235 149 C235 149.66 235 150.32 235 151 C235.66 150.67 236.32 150.34 237 150 C236.34 149.67 235.68 149.34 235 149 Z M-174.5 194.8125 C-175.1084375 195.33457031 -175.716875 195.85664063 -176.34375 196.39453125 C-178.21823043 198.09837551 -178.21823043 198.09837551 -180 201 C-179.67 201.99 -179.34 202.98 -179 204 C-178.67 203.01 -178.34 202.02 -178 201 C-176.6846659 200.29848848 -175.34882408 199.63474075 -174 199 C-172.2488427 197.5833253 -172.2488427 197.5833253 -171 196 C-171 195.34 -171 194.68 -171 194 C-170.34 194 -169.68 194 -169 194 C-169 193.34 -169 192.68 -169 192 C-171.71534532 192 -172.47467717 193.0489244 -174.5 194.8125 Z M-182 205 C-181 207 -181 207 -181 207 Z M-190 212 C-189.67 213.32 -189.34 214.64 -189 216 C-188.34 214.68 -187.68 213.36 -187 212 C-187.99 212 -188.98 212 -190 212 Z M229 346 C228.68436818 351.26053037 229.33409063 354.44573816 232 359 C232.33 359 232.66 359 233 359 C233.38281159 353.76824163 232.21854707 350.62197306 230 346 C229.67 346 229.34 346 229 346 Z M235 383 C234.34636561 386.34987623 234 389.38831797 234 392.8125 C234 393.864375 234 394.91625 234 396 C233.67 396.33 233.34 396.66 233 397 C232.95907063 399.33297433 232.95758277 401.66705225 233 404 C235.36568151 401.12119884 236.71193916 398.55649216 237.8125 395 C238.08707031 394.154375 238.36164062 393.30875 238.64453125 392.4375 C239.23602054 388.38157346 237.20209516 386.30314274 235 383 Z M232 413 C231.36865944 416.81147743 230.74516823 420.62418904 230.125 424.4375 C229.9401001 425.57155273 229.7552002 426.70560547 229.56469727 427.87402344 C228.29562196 435.79215688 227.29781937 443.68527365 226.58984375 451.671875 C225.97581002 455.13648913 224.796433 457.03391145 223 460 C222.84739523 462.45040416 222.84739523 462.45040416 223.3125 464.8125 C223.43238281 465.60269531 223.55226563 466.39289063 223.67578125 467.20703125 C223.78277344 467.79871094 223.88976562 468.39039063 224 469 C224.33 469 224.66 469 225 469 C225.18175781 468.16597656 225.36351562 467.33195312 225.55078125 466.47265625 C226.86109858 460.60646637 228.22522522 454.85728103 230.25390625 449.1953125 C232.42614171 442.80370869 233.57124611 436.68772216 234.25 430 C234.353125 429.13632812 234.45625 428.27265625 234.5625 427.3828125 C235.11713878 422.01586667 234.84983311 418.08013869 233 413 C232.67 413 232.34 413 232 413 Z M221 477 C219.93224776 478.96466413 218.93446535 480.96855359 218 483 C218.33 483.66 218.66 484.32 219 485 C220.62750037 482.67676547 220.62750037 482.67676547 222 480 C221.67 479.01 221.34 478.02 221 477 Z M-231 507 C-230 509 -230 509 -230 509 Z M-200 510 C-199.04663979 511.31611677 -198.08714226 512.62778961 -197.125 513.9375 C-196.59132812 514.66839844 -196.05765625 515.39929688 -195.5078125 516.15234375 C-194.11987896 518.11098235 -194.11987896 518.11098235 -192 519 C-192.66 516.36 -193.32 513.72 -194 511 C-196.97 510.505 -196.97 510.505 -200 510 Z M-190 521 C-189.01 522.485 -189.01 522.485 -188 524 C-187.01 523.67 -186.02 523.34 -185 523 C-187.475 522.01 -187.475 522.01 -190 521 Z M113 700 C110.69 701.32 108.38 702.64 106 704 C110.17587745 705.39195915 112.13474776 703.82323219 116 702 C115.01 701.34 114.02 700.68 113 700 Z " fill="#456AB5" transform="translate(380,6)"/>
<path d="M0 0 C6.42658295 3.7133426 6.42658295 3.7133426 7.7734375 7.75390625 C8.4334375 7.75390625 9.0934375 7.75390625 9.7734375 7.75390625 C12.51866633 12.18169469 14.25818147 15.47253196 14.7734375 20.75390625 C15.4334375 20.75390625 16.0934375 20.75390625 16.7734375 20.75390625 C16.7734375 20.09390625 16.7734375 19.43390625 16.7734375 18.75390625 C22.34415307 14.99972836 27.02928237 13.64530472 33.7734375 13.75390625 C43.22900758 15.6140184 49.24344378 21.05141499 54.7734375 28.75390625 C56.9275743 34.94526633 56.85331622 43.71639793 55.16015625 50.046875 C51.10762683 57.84844046 42.3974102 62.80482922 35.28515625 67.421875 C30.20598397 70.74796643 25.30118392 74.33251781 20.38500977 77.89331055 C19.68561279 78.39386963 18.98621582 78.89442871 18.265625 79.41015625 C17.64026855 79.86197266 17.01491211 80.31378906 16.37060547 80.77929688 C14.7734375 81.75390625 14.7734375 81.75390625 12.7734375 81.75390625 C12.7734375 82.41390625 12.7734375 83.07390625 12.7734375 83.75390625 C11.09375 85.04296875 11.09375 85.04296875 8.8984375 86.37890625 C8.17914063 86.82492187 7.45984375 87.2709375 6.71875 87.73046875 C4.7734375 88.75390625 4.7734375 88.75390625 2.7734375 88.75390625 C2.7734375 89.41390625 2.7734375 90.07390625 2.7734375 90.75390625 C0.7734375 92.37890625 0.7734375 92.37890625 -1.2265625 93.75390625 C1.89252055 102.02559993 1.89252055 102.02559993 5.2734375 110.19140625 C6.70710591 113.59636872 7.93175058 117.01632231 9.1484375 120.50390625 C11.0330228 125.85205372 13.16968626 130.96266536 15.58203125 136.08984375 C17.22271732 139.75852539 18.53270916 143.52125575 19.859375 147.3125 C20.79560372 149.96158526 20.79560372 149.96158526 22.5234375 153.12890625 C23.85574578 155.92675363 24.04320142 157.69658181 23.7734375 160.75390625 C24.4334375 160.75390625 25.0934375 160.75390625 25.7734375 160.75390625 C27.19865948 168.94893263 27.43168685 175.7791582 24.7734375 183.75390625 C56.1234375 183.75390625 87.4734375 183.75390625 119.7734375 183.75390625 C119.7734375 180.78390625 119.7734375 177.81390625 119.7734375 174.75390625 C121.51772646 167.29477585 125.99243974 160.44731226 129.625 153.75390625 C135.45334889 142.97596044 140.72744034 131.9162636 145.7734375 120.75390625 C146.4334375 120.75390625 147.0934375 120.75390625 147.7734375 120.75390625 C147.87785156 120.01140625 147.98226563 119.26890625 148.08984375 118.50390625 C149.4523924 113.02256767 153.58392469 109.25446198 158.14453125 106.12890625 C165.27520642 102.21315327 170.97067989 101.80321685 178.7734375 103.75390625 C180.4234375 100.45390625 182.0734375 97.15390625 183.7734375 93.75390625 C184.4334375 93.75390625 185.0934375 93.75390625 185.7734375 93.75390625 C186.1034375 92.10390625 186.4334375 90.45390625 186.7734375 88.75390625 C187.4334375 88.75390625 188.0934375 88.75390625 188.7734375 88.75390625 C188.8559375 88.19703125 188.9384375 87.64015625 189.0234375 87.06640625 C190.04015643 83.93152287 191.44792653 82.07941722 193.7734375 79.75390625 C197.53650849 79.11143072 198.53190584 79.59288515 201.7734375 81.75390625 C202.89024653 87.00290867 201.43518312 89.72200135 198.5859375 94.19140625 C196.80506284 96.83551547 194.98616572 99.44949371 193.16015625 102.0625 C190.50198605 105.89915001 190.50198605 105.89915001 189.7109375 110.37890625 C191.07224727 113.42183398 192.87244196 116.02122516 194.7734375 118.75390625 C197.42872878 126.71978008 196.28706147 135.28745532 192.7734375 142.75390625 C192.1134375 142.75390625 191.4534375 142.75390625 190.7734375 142.75390625 C190.7734375 143.41390625 190.7734375 144.07390625 190.7734375 144.75390625 C190.1134375 144.75390625 189.4534375 144.75390625 188.7734375 144.75390625 C188.66902344 145.305625 188.56460937 145.85734375 188.45703125 146.42578125 C187.62783366 149.24979134 186.345441 151.47945541 184.8359375 154.00390625 C184.31128906 154.8959375 183.78664063 155.78796875 183.24609375 156.70703125 C182.51712891 157.72023438 182.51712891 157.72023438 181.7734375 158.75390625 C181.1134375 158.75390625 180.4534375 158.75390625 179.7734375 158.75390625 C179.66902344 159.305625 179.56460937 159.85734375 179.45703125 160.42578125 C178.62783366 163.24979134 177.345441 165.47945541 175.8359375 168.00390625 C175.31128906 168.8959375 174.78664063 169.78796875 174.24609375 170.70703125 C173.51712891 171.72023438 173.51712891 171.72023438 172.7734375 172.75390625 C172.1134375 172.75390625 171.4534375 172.75390625 170.7734375 172.75390625 C170.6909375 173.26953125 170.6084375 173.78515625 170.5234375 174.31640625 C169.45203525 177.79846357 167.63820145 180.6259151 165.7734375 183.75390625 C165.1134375 183.75390625 164.4534375 183.75390625 163.7734375 183.75390625 C163.66386719 184.33140625 163.55429687 184.90890625 163.44140625 185.50390625 C161.55827992 191.84706861 156.4091742 196.63626467 150.7734375 199.75390625 C149.12724637 200.46964152 147.46615695 201.15647585 145.7734375 201.75390625 C146.19786133 202.55550171 146.19786133 202.55550171 146.63085938 203.37329102 C149.54333815 209.29486198 150.41469445 214.13052563 150.2734375 220.69140625 C150.26570313 221.56442383 150.25796875 222.43744141 150.25 223.33691406 C150.07823184 229.728121 149.06487837 235.17021192 145.7734375 240.75390625 C146.5159375 241.31078125 147.2584375 241.86765625 148.0234375 242.44140625 C150.7075586 244.69850809 152.74584743 246.90026096 154.7734375 249.75390625 C154.7734375 250.41390625 154.7734375 251.07390625 154.7734375 251.75390625 C155.4334375 251.75390625 156.0934375 251.75390625 156.7734375 251.75390625 C158.5 253.65234375 158.5 253.65234375 160.3984375 256.12890625 C161.03007812 256.94101562 161.66171875 257.753125 162.3125 258.58984375 C163.7734375 260.75390625 163.7734375 260.75390625 163.7734375 262.75390625 C164.4334375 262.75390625 165.0934375 262.75390625 165.7734375 262.75390625 C167.47471556 264.8049244 169.07331758 266.85935522 170.6484375 269.00390625 C173.50266096 272.85753139 176.332343 276.39623222 179.7734375 279.75390625 C181.14721964 281.38340229 182.49994803 283.03078382 183.8359375 284.69140625 C186.80408148 288.35650357 189.80568799 291.98040253 192.87670898 295.55957031 C195.19842899 298.27209899 197.49258094 301.00696161 199.7734375 303.75390625 C200.20785156 304.27662109 200.64226562 304.79933594 201.08984375 305.33789062 C207.96448018 313.71569679 212.49386515 321.38269627 212.0625 332.4609375 C211.20311343 339.2779634 209.13197018 345.41118877 204.7734375 350.75390625 C204.1134375 350.75390625 203.4534375 350.75390625 202.7734375 350.75390625 C202.7734375 351.41390625 202.7734375 352.07390625 202.7734375 352.75390625 C202.1134375 352.75390625 201.4534375 352.75390625 200.7734375 352.75390625 C200.7734375 353.41390625 200.7734375 354.07390625 200.7734375 354.75390625 C192.46790181 361.61500095 184.18600364 364.52057421 173.375 364.30859375 C168.22555724 363.51551254 164.19986095 361.21235193 159.6171875 358.83203125 C156.92847555 357.52676633 156.92847555 357.52676633 154.6171875 358.17578125 C152.54107924 359.37563454 152.54107924 359.37563454 149.7734375 361.75390625 C142.10898548 364.92917923 131.78856335 365.37756708 123.9609375 362.31640625 C113.29137332 356.61788902 106.93254954 348.2504181 103.35546875 336.9453125 C102.7734375 334.75390625 102.7734375 334.75390625 102.2734375 331.19140625 C101.78912246 327.86174032 100.79111936 325.10569225 99.58886719 321.98120117 C98.23268704 318.27688036 97.19318414 314.49312318 96.1484375 310.69140625 C95.931875 309.92763672 95.7153125 309.16386719 95.4921875 308.37695312 C94.53841426 304.93571572 93.76467007 301.68502994 93.3125 298.1328125 C92.70113596 294.30071183 91.30757894 291.31189014 89.7734375 287.75390625 C88.95370069 284.73842147 88.32803163 281.69152158 87.7109375 278.62890625 C86.54555277 272.71464449 86.54555277 272.71464449 84.65234375 267.01171875 C83.65211225 264.44223517 83.70977826 262.48757532 83.7734375 259.75390625 C82.80071899 259.88236938 82.80071899 259.88236938 81.80834961 260.01342773 C59.10319269 262.99052711 59.10319269 262.99052711 47.69921875 263.54296875 C44.97172597 263.73961042 42.44826555 264.2127815 39.7734375 264.75390625 C38.33715293 264.81657137 36.898382 264.84076972 35.4609375 264.81640625 C34.2440625 264.79578125 33.0271875 264.77515625 31.7734375 264.75390625 C31.59167969 265.6253125 31.40992188 266.49671875 31.22265625 267.39453125 C29.06541678 277.61652752 26.64890509 287.71075852 23.7734375 297.75390625 C23.35351301 299.28201599 22.93565128 300.81069363 22.51953125 302.33984375 C22.30490234 303.12488281 22.09027344 303.90992188 21.86914062 304.71875 C21.42411054 306.34832605 20.98146543 307.97855501 20.54101562 309.609375 C18.88527679 315.64206696 18.88527679 315.64206696 17.7734375 316.75390625 C17.6496875 317.74390625 17.5259375 318.73390625 17.3984375 319.75390625 C16.91610951 323.41959894 15.88399359 326.69272985 14.64453125 330.16796875 C14.00775028 332.05832303 13.44770881 333.9750101 12.93359375 335.90234375 C10.18694781 346.0166022 5.62530637 353.79591759 -3.2265625 359.75390625 C-12.56586739 364.31112725 -21.14716617 365.37705628 -31.0390625 362.00390625 C-34.20544433 360.75176663 -36.88378863 359.42244977 -39.6015625 357.37890625 C-42.08330246 355.4293379 -42.08330246 355.4293379 -44.7265625 356.25390625 C-46.55990976 357.35391461 -48.34644096 358.53295214 -50.1015625 359.75390625 C-56.38133872 363.77296303 -62.93077306 364.59531846 -70.2265625 363.75390625 C-80.07093684 361.43513261 -88.43220219 356.1235378 -94.2265625 347.75390625 C-94.9278125 346.84640625 -95.6290625 345.93890625 -96.3515625 345.00390625 C-100.16104964 338.40079521 -100.75096517 332.12673839 -99.2265625 324.75390625 C-99.05640625 323.76583984 -99.05640625 323.76583984 -98.8828125 322.7578125 C-96.8827304 312.8920229 -90.25123969 306.36187184 -83.5546875 299.29296875 C-81.23146063 296.9927484 -81.23146063 296.9927484 -80.2265625 294.75390625 C-79.5665625 294.75390625 -78.9065625 294.75390625 -78.2265625 294.75390625 C-77.8965625 293.76390625 -77.5665625 292.77390625 -77.2265625 291.75390625 C-76.5665625 291.75390625 -75.9065625 291.75390625 -75.2265625 291.75390625 C-74.9171875 290.96693359 -74.9171875 290.96693359 -74.6015625 290.1640625 C-72.63104928 286.71006632 -69.9609279 284.05797563 -67.2265625 281.19140625 C-66.14135102 280.04604743 -65.05794785 278.89897193 -63.9765625 277.75 C-63.49703125 277.24654053 -63.0175 276.74308105 -62.5234375 276.22436523 C-61.01034068 274.575113 -61.01034068 274.575113 -59.2265625 271.75390625 C-58.5665625 271.75390625 -57.9065625 271.75390625 -57.2265625 271.75390625 C-56.9584375 271.17125 -56.6903125 270.58859375 -56.4140625 269.98828125 C-55.21175259 267.72604024 -53.88830337 265.94814307 -52.2265625 264.00390625 C-51.7109375 263.3903125 -51.1953125 262.77671875 -50.6640625 262.14453125 C-49.2265625 260.75390625 -49.2265625 260.75390625 -47.2265625 260.75390625 C-46.94683594 260.15964844 -46.66710937 259.56539063 -46.37890625 258.953125 C-41.86825045 250.34465308 -33.14344508 244.03182797 -25.2265625 238.75390625 C-25.39414062 238.16867187 -25.56171875 237.5834375 -25.734375 236.98046875 C-27.23625826 230.64974565 -27.26362556 224.92052136 -26.6015625 218.50390625 C-26.53211426 217.74803223 -26.46266602 216.9921582 -26.39111328 216.21337891 C-25.75164327 210.86647091 -24.15447846 207.2712623 -21.2265625 202.75390625 C-21.81824219 202.40199219 -22.40992188 202.05007813 -23.01953125 201.6875 C-28.45108703 198.29388521 -31.93732493 195.27133701 -35.2265625 189.75390625 C-35.2265625 189.09390625 -35.2265625 188.43390625 -35.2265625 187.75390625 C-35.8865625 187.75390625 -36.5465625 187.75390625 -37.2265625 187.75390625 C-40.87270376 175.76583575 -44.29435316 163.73217464 -47.38818359 151.59008789 C-48.60307041 146.88628252 -49.99773758 142.28947991 -51.58886719 137.69873047 C-52.33847515 135.41259838 -52.84361564 133.12817679 -53.2265625 130.75390625 C-54.66393956 130.72584466 -56.10149673 130.70705627 -57.5390625 130.69140625 C-58.33957031 130.67980469 -59.14007813 130.66820312 -59.96484375 130.65625 C-62.70574714 130.73831298 -65.35335038 130.95564396 -68.078125 131.234375 C-74.77129321 131.8649113 -81.46002972 132.04616972 -88.17895508 132.10400391 C-89.58765102 132.12062857 -90.99626041 132.14800427 -92.40454102 132.18603516 C-102.89550509 132.46585908 -111.40456239 131.48497535 -119.3515625 124.06640625 C-121.2265625 121.75390625 -121.2265625 121.75390625 -121.2265625 119.75390625 C-121.8865625 119.75390625 -122.5465625 119.75390625 -123.2265625 119.75390625 C-123.90251565 118.34164699 -124.56696309 116.9238772 -125.2265625 115.50390625 C-125.5978125 114.715 -125.9690625 113.92609375 -126.3515625 113.11328125 C-127.2265625 110.75390625 -127.2265625 110.75390625 -127.2265625 106.75390625 C-128 107.74390625 -128 107.74390625 -128.7890625 108.75390625 C-132.02652005 111.41028168 -134.15208531 111.06732757 -138.2265625 110.75390625 C-138.5565625 109.43390625 -138.8865625 108.11390625 -139.2265625 106.75390625 C-139.8865625 106.75390625 -140.5465625 106.75390625 -141.2265625 106.75390625 C-141.4361949 102.63113573 -141.54479369 99.65244136 -140.1640625 95.75390625 C-138.2265625 93.75390625 -138.2265625 93.75390625 -134.7890625 93.19140625 C-130.81533526 93.81883687 -129.65726729 94.64260412 -127.2265625 97.75390625 C-127.3090625 97.09390625 -127.3915625 96.43390625 -127.4765625 95.75390625 C-127.12552609 91.54146931 -125.25695477 88.40679948 -123.2265625 84.75390625 C-122.5665625 84.75390625 -121.9065625 84.75390625 -121.2265625 84.75390625 C-121.0203125 84.19703125 -120.8140625 83.64015625 -120.6015625 83.06640625 C-117.47754972 77.81238476 -112.7199935 74.91169079 -106.96484375 73.25390625 C-95.78097565 71.21177342 -83.8015633 72.95963859 -72.5390625 73.69140625 C-71.87041168 73.73470062 -71.20176086 73.777995 -70.5128479 73.82260132 C-58.27260874 74.62988313 -58.27260874 74.62988313 -53.2265625 75.75390625 C-53.3090625 74.82578125 -53.3915625 73.89765625 -53.4765625 72.94140625 C-53.4765625 67.49740488 -51.23758981 62.7299977 -49.2265625 57.75390625 C-48.70642578 56.46033203 -48.70642578 56.46033203 -48.17578125 55.140625 C-47.5074442 53.4813944 -46.83819047 51.82253271 -46.16796875 50.1640625 C-43.32145024 42.87650266 -41.05198886 35.35984941 -39.2265625 27.75390625 C-38.5665625 27.75390625 -37.9065625 27.75390625 -37.2265625 27.75390625 C-37.1440625 26.82578125 -37.0615625 25.89765625 -36.9765625 24.94140625 C-35.94028781 17.77505593 -33.52159302 9.87243575 -28.2265625 4.75390625 C-27.5665625 4.75390625 -26.9065625 4.75390625 -26.2265625 4.75390625 C-26.2265625 4.09390625 -26.2265625 3.43390625 -26.2265625 2.75390625 C-19.05472092 -2.98356701 -8.41351965 -3.24928907 0 0 Z " fill="#FEC000" transform="translate(334.2265625,199.24609375)"/>
<path d="M0 0 C0.05680585 2.84029233 0.05956488 4.42309706 -1 7 C-5.01330085 10.74520586 -8.46264992 13 -14 13 C-14 13.66 -14 14.32 -14 15 C-16.71654599 18.41759012 -18.986689 20.16833502 -23.125 21.3125 C-28.35947346 22.82682092 -32.14637431 25.7621135 -36.421875 29.0625 C-39 31 -39 31 -41.59765625 32.48828125 C-44.19105845 34.12022703 -45.76528468 35.81604784 -47.6875 38.1875 C-49.44921875 40.35546875 -49.44921875 40.35546875 -51 42 C-51.66 42 -52.32 42 -53 42 C-53.268125 42.639375 -53.53625 43.27875 -53.8125 43.9375 C-55 46 -55 46 -58 47 C-59.20882096 49.00016466 -59.20882096 49.00016466 -60 51 C-60.66 51 -61.32 51 -62 51 C-62.28875 51.598125 -62.5775 52.19625 -62.875 52.8125 C-64 55 -64 55 -66 58 C-66.66 58 -67.32 58 -68 58 C-68 58.66 -68 59.32 -68 60 C-68.86625 60.350625 -69.7325 60.70125 -70.625 61.0625 C-74.16965576 63.09739497 -75.90323586 65.02990331 -78.41796875 68.1484375 C-80.94412763 71.104979 -83.81664278 73.76016361 -87 76 C-87.66 76 -88.32 76 -89 76 C-89 76.66 -89 77.32 -89 78 C-89.45375 78.433125 -89.9075 78.86625 -90.375 79.3125 C-92.19276615 80.95054048 -92.19276615 80.95054048 -92.8125 83.5625 C-94 86 -94 86 -97 87.1875 C-98.485 87.5896875 -98.485 87.5896875 -100 88 C-100.99 88.99 -100.99 88.99 -102 90 C-102.99 90 -103.98 90 -105 90 C-105.09796875 90.59167969 -105.1959375 91.18335938 -105.296875 91.79296875 C-106.52776607 95.65659904 -109.60826593 97.93639759 -113 100 C-115.9375 99.875 -115.9375 99.875 -118 99 C-119.35121107 91.75259516 -119.35121107 91.75259516 -117.6875 88.1875 C-116.8521875 87.1046875 -116.8521875 87.1046875 -116 86 C-115.34 85.01 -114.68 84.02 -114 83 C-113.34 83 -112.68 83 -112 83 C-111.773125 82.484375 -111.54625 81.96875 -111.3125 81.4375 C-109.5024447 78.07596873 -107.26003596 75.07088856 -105 72 C-105.99 72 -106.98 72 -108 72 C-108.061875 72.61875 -108.12375 73.2375 -108.1875 73.875 C-109 76 -109 76 -111.1875 77.5 C-114 78 -114 78 -116.9375 76.25 C-117.948125 75.5075 -118.95875 74.765 -120 74 C-123.2249208 72.75675853 -123.2249208 72.75675853 -126 72 C-125.84587857 63.52332124 -122.05275899 58.92793069 -116.09765625 53.15625 C-111.38760046 49.17846776 -106.15461596 46.34624043 -100.6875 43.5625 C-99.99342041 43.20792725 -99.29934082 42.85335449 -98.58422852 42.48803711 C-95.07804588 40.77135762 -92.97245809 40 -89 40 C-89.33 41.65 -89.66 43.3 -90 45 C-90.66 45 -91.32 45 -92 45 C-92.433125 46.11375 -92.433125 46.11375 -92.875 47.25 C-93.82302644 49.56739797 -94.84845911 51.77917115 -96 54 C-96.66 54 -97.32 54 -98 54 C-98.12246094 54.53109375 -98.24492187 55.0621875 -98.37109375 55.609375 C-99.14134208 58.53727548 -100.09580883 61.38111006 -101.0625 64.25 C-101.42472656 65.32765625 -101.78695312 66.4053125 -102.16015625 67.515625 C-102.43730469 68.33546875 -102.71445313 69.1553125 -103 70 C-102.34 70 -101.68 70 -101 70 C-101 69.34 -101 68.68 -101 68 C-99.5578003 67.06089322 -98.11393954 66.1241981 -96.66015625 65.203125 C-92.76367238 62.37932022 -89.87085943 58.42203137 -88 54 C-87.34 54 -86.68 54 -86 54 C-86 53.34 -86 52.68 -86 52 C-84.6015625 50.80859375 -84.6015625 50.80859375 -82.625 49.4375 C-67.91624437 39.09110803 -67.91624437 39.09110803 -58 25 C-56.783125 25.061875 -55.56625 25.12375 -54.3125 25.1875 C-50.35309253 25.19447079 -48.27436971 24.30090845 -45 22 C-44.22011719 21.69964844 -43.44023437 21.39929688 -42.63671875 21.08984375 C-39.14143585 19.64512682 -36.33745891 17.54052939 -33.28125 15.33984375 C-30.82766429 13.89878228 -28.80026316 13.3993333 -26 13 C-26 12.34 -26 11.68 -26 11 C-25.18208984 10.56300781 -25.18208984 10.56300781 -24.34765625 10.1171875 C-20.17345088 7.84813227 -16.27069869 5.49895758 -12.4375 2.6875 C-8.06777173 -0.32053477 -5.21960293 -0.56941123 0 0 Z " fill="#4369B5" transform="translate(237,67)"/>
<path d="M0 0 C0 1.32 0 2.64 0 4 C-0.66 4 -1.32 4 -2 4 C-2 4.66 -2 5.32 -2 6 C-3.74411301 7.23662862 -5.54706485 8.39102135 -7.375 9.5 C-11.42943147 11.94216507 -11.42943147 11.94216507 -15 15 C-15.33 16.65 -15.66 18.3 -16 20 C-19.63 20.33 -23.26 20.66 -27 21 C-27 19.35 -27 17.7 -27 16 C-26.34 16 -25.68 16 -25 16 C-24.67 15.01 -24.34 14.02 -24 13 C-23.34 13 -22.68 13 -22 13 C-21.34 11.68 -20.68 10.36 -20 9 C-19.34 9 -18.68 9 -18 9 C-18 8.34 -18 7.68 -18 7 C-17.195625 6.731875 -16.39125 6.46375 -15.5625 6.1875 C-14.716875 5.795625 -13.87125 5.40375 -13 5 C-12.67 4.01 -12.34 3.02 -12 2 C-11.34 2 -10.68 2 -10 2 C-10 1.34 -10 0.68 -10 0 C-6.30458414 -0.95024979 -3.69541586 -0.95024979 0 0 Z " fill="#4268B4" transform="translate(204,112)"/>
<path d="M0 0 C1.32 0 2.64 0 4 0 C5.38550197 2.77100394 5.1877467 4.9334706 5 8 C3 11 3 11 0.625 11.9375 C-2.12626887 12.83105024 -2.12626887 12.83105024 -3.9375 15.125 C-6 17 -6 17 -9.1875 17.3125 C-12 17 -12 17 -13 16 C-13.09873816 14.00200428 -13.12971799 12.00042842 -13.125 10 C-13.12757813 8.906875 -13.13015625 7.81375 -13.1328125 6.6875 C-13 4 -13 4 -12 3 C-9.1668006 2.42618746 -6.32080238 1.97044163 -3.46875 1.5 C-1.06584023 1.25006493 -1.06584023 1.25006493 0 0 Z " fill="#4369B6" transform="translate(284,137)"/>
<path d="M0 0 C1.65 0.66 3.3 1.32 5 2 C4.42415568 4.38564077 3.77772405 6.66682784 3 9 C-0.32091002 10.70533217 -2.18492784 11 -6 11 C-6.33 11.99 -6.66 12.98 -7 14 C-9.64 14 -12.28 14 -15 14 C-15 14.66 -15 15.32 -15 16 C-18.375 16.125 -18.375 16.125 -22 16 C-22.66 15.34 -23.32 14.68 -24 14 C-24 12.68 -24 11.36 -24 10 C-22.9275 10.061875 -21.855 10.12375 -20.75 10.1875 C-16.87095557 9.99354778 -15.59451462 9.79409267 -13 7 C-12.67 5.68 -12.34 4.36 -12 3 C-8.37 3 -4.74 3 -1 3 C-0.67 2.01 -0.34 1.02 0 0 Z " fill="#4068B3" transform="translate(434,690)"/>
<path d="M0 0 C1.98 0 3.96 0 6 0 C6 0.66 6 1.32 6 2 C6.66 2 7.32 2 8 2 C8 3.65 8 5.3 8 7 C6.68 7.33 5.36 7.66 4 8 C3.938125 8.763125 3.87625 9.52625 3.8125 10.3125 C2.72640215 13.90497751 1.2090383 14.17668279 -2 16 C-3.81571406 17.90920611 -5.3789535 19.91579735 -7 22 C-10.875 21.125 -10.875 21.125 -12 20 C-12.4375 17.25 -12.4375 17.25 -12 14 C-9.1875 11.5 -9.1875 11.5 -7.53515625 10.30078125 C-5.17568242 8.30153243 -4.17493697 5.80679388 -3 3 C-2.34 3 -1.68 3 -1 3 C-0.67 2.01 -0.34 1.02 0 0 Z " fill="#4266B4" transform="translate(151,150)"/>
<path d="M0 0 C-0.50603992 2.16874252 -0.99983813 3.99967627 -2 6 C-2.66 6 -3.32 6 -4 6 C-5.23158439 8.90302035 -6.14377336 11.605902 -6.875 14.6875 C-8 18 -8 18 -10.0625 19.3125 C-10.701875 19.539375 -11.34125 19.76625 -12 20 C-12.33 20.66 -12.66 21.32 -13 22 C-14.98 22 -16.96 22 -19 22 C-19.5497272 16.36529617 -17.95047835 13.61012242 -15 9 C-14.34 9 -13.68 9 -13 9 C-13 8.01 -13 7.02 -13 6 C-11.42578125 4.39453125 -11.42578125 4.39453125 -9.3125 2.8125 C-8.62800781 2.28269531 -7.94351563 1.75289062 -7.23828125 1.20703125 C-4.62535602 -0.20203314 -2.92557181 -0.2305617 0 0 Z " fill="#4267B5" transform="translate(118,173)"/>
<path d="M0 0 C4.875 0.875 4.875 0.875 6 2 C6.04063832 3.66617115 6.042721 5.33388095 6 7 C5.01 7.495 5.01 7.495 4 8 C3.6609196 9.33188339 3.32905985 10.66560557 3 12 C2.02235066 13.93904966 0.99784886 15.85490842 -0.0625 17.75 C-0.61035156 18.73484375 -1.15820312 19.7196875 -1.72265625 20.734375 C-2.14417969 21.48203125 -2.56570312 22.2296875 -3 23 C-4.65 22.67 -6.3 22.34 -8 22 C-8.3227506 17.37390802 -7.84450614 14.71973879 -5 11 C-4.34 11 -3.68 11 -3 11 C-2.87625 10.21625 -2.7525 9.4325 -2.625 8.625 C-2 6 -2 6 0 4 C0 2.68 0 1.36 0 0 Z " fill="#3F64B0" transform="translate(101,205)"/>
<path d="M0 0 C2.97 0 5.94 0 9 0 C9 2.31 9 4.62 9 7 C8.39671875 7.03738281 7.7934375 7.07476562 7.171875 7.11328125 C2.50640998 7.49705337 -0.39215091 7.80844119 -4 11 C-4.99 11 -5.98 11 -7 11 C-7.1875 8.125 -7.1875 8.125 -7 5 C-4 3 -4 3 -1 3 C-0.67 2.01 -0.34 1.02 0 0 Z " fill="#4466B5" transform="translate(259,150)"/>
<path d="M0 0 C1.2065625 0.0309375 1.2065625 0.0309375 2.4375 0.0625 C3.77879763 4.0863929 2.90889194 6.13878815 1.4375 10.0625 C-0.8647645 12.52354136 -1.94436398 13.02035436 -5.3125 13.25 C-6.055 13.188125 -6.7975 13.12625 -7.5625 13.0625 C-7.8925 11.4125 -8.2225 9.7625 -8.5625 8.0625 C-7.5725 7.4025 -6.5825 6.7425 -5.5625 6.0625 C-4.84090576 4.41886866 -4.16898579 2.75199614 -3.5625 1.0625 C-2.5625 0.0625 -2.5625 0.0625 0 0 Z " fill="#4068B7" transform="translate(116.5625,195.9375)"/>
<path d="M0 0 C-0.67170806 3.8063457 -1.72746564 7.35206816 -3 11 C-4.093125 10.79375 -5.18625 10.5875 -6.3125 10.375 C-10.0838401 9.59653475 -10.0838401 9.59653475 -13 12 C-13 10.35 -13 8.7 -13 7 C-12.34 7 -11.68 7 -11 7 C-11 6.01 -11 5.02 -11 4 C-9.68 3.67 -8.36 3.34 -7 3 C-7 2.01 -7 1.02 -7 0 C-4.3333581 -1.33332095 -2.83319697 -0.67102033 0 0 Z " fill="#395DB5" transform="translate(96,229)"/>
<path d="M0 0 C1 3 1 3 0 6 C1.32 6 2.64 6 4 6 C4 6.66 4 7.32 4 8 C3.2575 8.12375 2.515 8.2475 1.75 8.375 C-0.93596714 8.83990411 -0.93596714 8.83990411 -2.8125 10.0625 C-6.20285833 11.51551071 -9.33354409 11.1222152 -13 11 C-13 9.68 -13 8.36 -13 7 C-11.35 6.67 -9.7 6.34 -8 6 C-8 5.34 -8 4.68 -8 4 C-5.69 4 -3.38 4 -1 4 C-0.67 2.68 -0.34 1.36 0 0 Z " fill="#3D61AF" transform="translate(439,650)"/>
<path d="M0 0 C1 3 1 3 1 5 C-0.36673559 7.73347118 -2.30457231 8.35184154 -5.078125 9.40625 C-7.68970701 10.21308022 -10.29013141 10.66952822 -13 11 C-13 9.02 -13 7.04 -13 5 C-8.71 3.35 -4.42 1.7 0 0 Z " fill="#395EAD" transform="translate(284,44)"/>
<path d="M0 0 C5.28 0 10.56 0 16 0 C16 1.65 16 3.3 16 5 C13.89611431 5.05402274 11.79183286 5.09280256 9.6875 5.125 C7.92986328 5.15980469 7.92986328 5.15980469 6.13671875 5.1953125 C3 5 3 5 0 3 C0 2.01 0 1.02 0 0 Z " fill="#4167B2" transform="translate(393,0)"/>
<path d="M0 0 C2.64 0 5.28 0 8 0 C7.125 4.875 7.125 4.875 6 6 C4.00041636 6.04080783 1.99954746 6.04254356 0 6 C-1.125 2.25 -1.125 2.25 0 0 Z " fill="#4065B4" transform="translate(203,557)"/>
<path d="M0 0 C-0.3125 1.875 -0.3125 1.875 -1 4 C-4.22791555 6.1519437 -5.28400809 6.20086443 -9 6 C-8.67 4.02 -8.34 2.04 -8 0 C-4.94736336 -0.98120464 -3.05263664 -0.98120464 0 0 Z " fill="#3A60AD" transform="translate(247,164)"/>
<path d="M0 0 C2.97 0.495 2.97 0.495 6 1 C6.84454356 4.37817425 7.10844919 6.67465243 6 10 C5.34 9.67 4.68 9.34 4 9 C4.33 8.01 4.66 7.02 5 6 C3.02 6 1.04 6 -1 6 C-0.67 4.02 -0.34 2.04 0 0 Z " fill="#386CAD" transform="translate(1,361)"/>
<path d="M0 0 C4.875 0.875 4.875 0.875 6 2 C6.04063832 3.66617115 6.042721 5.33388095 6 7 C5.01 7.495 5.01 7.495 4 8 C4 8.66 4 9.32 4 10 C3.34 10 2.68 10 2 10 C2 8.68 2 7.36 2 6 C1.34 5.67 0.68 5.34 0 5 C0 3.35 0 1.7 0 0 Z " fill="#3A71B4" transform="translate(101,205)"/>
<path d="M0 0 C0.33 1.65 0.66 3.3 1 5 C-2.625 8 -2.625 8 -6 8 C-6.1875 5.125 -6.1875 5.125 -6 2 C-3 0 -3 0 0 0 Z " fill="#3F64A6" transform="translate(258,153)"/>
<path d="M0 0 C1.98 0.495 1.98 0.495 4 1 C4 3.64 4 6.28 4 9 C1.4375 6.75 1.4375 6.75 -1 4 C-0.8125 1.6875 -0.8125 1.6875 0 0 Z " fill="#3C5BB6" transform="translate(178,552)"/>
<path d="M0 0 C-4.74705277 3.16470185 -8.31771295 3.10927475 -14 3 C-8.75250397 0.37625198 -5.91152367 -0.09534716 0 0 Z " fill="#4A71BE" transform="translate(322,35)"/>
<path d="M0 0 C-0.33 0.66 -0.66 1.32 -1 2 C-1.61875 2.144375 -2.2375 2.28875 -2.875 2.4375 C-5.38282641 3.1013364 -6.23995676 4.15995479 -8 6 C-8.66 6 -9.32 6 -10 6 C-9.1875 3.5625 -9.1875 3.5625 -8 1 C-5.07175348 0.02391783 -3.04386724 -0.08226668 0 0 Z " fill="#2E50BD" transform="translate(484,621)"/>
</svg>
